<?xml version="1.0" encoding="UTF-8" standalone="no"?>
<svg
   xmlns:dc="http://purl.org/dc/elements/1.1/"
   xmlns:cc="http://creativecommons.org/ns#"
   xmlns:rdf="http://www.w3.org/1999/02/22-rdf-syntax-ns#"
   xmlns:svg="http://www.w3.org/2000/svg"
   xmlns="http://www.w3.org/2000/svg"
   xmlns:sodipodi="http://sodipodi.sourceforge.net/DTD/sodipodi-0.dtd"
   xmlns:inkscape="http://www.inkscape.org/namespaces/inkscape"
   width="320"
   height="320"
   viewBox="0 0 84.666662 84.666654"
   version="1.1"
   inkscape:version="1.0.1 (3bc2e813f5, 2020-09-07)"
   id="svg991"
   sodipodi:docname="flag-simple2.svg">
  <metadata
     id="metadata995">
    <rdf:RDF>
      <cc:Work
         rdf:about="">
        <dc:format>image/svg+xml</dc:format>
        <dc:type
           rdf:resource="http://purl.org/dc/dcmitype/StillImage" />
        <dc:title></dc:title>
      </cc:Work>
    </rdf:RDF>
  </metadata>
  <defs
     id="defs993">
    <inkscape:path-effect
       effect="powerclip"
       id="path-effect1033"
       is_visible="true"
       lpeversion="1"
       inverse="true"
       flatten="false"
       hide_clip="false"
       message="Use fill-rule evenodd on &lt;b&gt;fill and stroke&lt;/b&gt; dialog if no flatten result after convert clip to paths." />
    <inkscape:path-effect
       effect="envelope"
       id="path-effect29030"
       is_visible="true"
       lpeversion="1"
       yy="true"
       xx="false"
       bendpath1="m 0,0 c 0.8840544,0.27937812 1.2085371,0.25041368 1.9592516,0.25041368 0.7507146,0 1.6425142,-0.14255904 2.3454786,-0.38366131 0.7029644,-0.24110227 1.594764,-0.37830078 2.3454785,-0.37830078 0.7507146,0 1.9351864,0.22909548 2.3583658,0.37830078"
       bendpath2="m 9.0012682,0.01432705 0.00731,5.99138925"
       bendpath3="M 0,6.0057163 C 0.76100014,6.2479972 1.2764128,6.2448344 1.9592516,6.25613 2.6420904,6.2674256 3.4783306,6.1338273 4.3047302,5.8724687 5.1311298,5.6111101 5.8994942,5.4941679 6.6502087,5.4941679 c 0.7507146,0 1.8701016,0.2056558 2.3583658,0.3783008"
       bendpath4="M 0,0 C 0.3580055,0.73784477 0,6.0057163 0,6.0057163"
       bendpath1-nodetypes="czzzc"
       bendpath3-nodetypes="czzzc"
       bendpath4-nodetypes="cc"
       bendpath2-nodetypes="cc" />
  </defs>
  <sodipodi:namedview
     pagecolor="#ffffff"
     bordercolor="#666666"
     borderopacity="1.0"
     inkscape:pageopacity="0.0"
     inkscape:pageshadow="2"
     inkscape:zoom="2"
     inkscape:cx="136.80383"
     inkscape:cy="172.15959"
     inkscape:document-units="px"
     inkscape:current-layer="svg991"
     inkscape:document-rotation="0"
     showgrid="true"
     units="px"
     inkscape:window-width="1737"
     inkscape:window-height="1228"
     inkscape:window-x="-5"
     inkscape:window-y="47"
     inkscape:window-maximized="0"
     inkscape:snap-global="false"
     id="namedview977">
    <inkscape:grid
       type="xygrid"
       empspacing="8"
       color="#ff3ff2"
       opacity="0.1254902"
       dotted="false"
       id="grid975"
       units="px"
       spacingx="2.6458331"
       spacingy="2.6458331" />
  </sodipodi:namedview>
  <path
     style="font-style:normal;font-weight:normal;font-size:1222.56px;line-height:1.25;font-family:sans-serif;fill:#ffffff;fill-opacity:1;stroke:none;stroke-width:1.88628"
     d="m 7.9552799,9.2765395 q 0,1.2883975 0.7373978,2.3191275 0.7373978,0.993886 1.9172933,1.398833 v 66.371391 h 2.617862 V 12.9945 q 1.179876,-0.404936 1.917293,-1.398833 0.737397,-1.030727 0.737397,-2.3191275 0,-0.8098756 -0.331899,-1.5092903 Q 15.255725,7.0310328 14.702627,6.4788624 14.186429,5.9267269 13.449022,5.6321793 12.748524,5.3008841 11.937297,5.3008841 q -0.847997,0 -1.585455,0.3312952 Q 9.6513447,5.9268309 9.0982458,6.4788624 8.5820481,6.9942504 8.2502495,7.7304435 7.95535,8.466671 7.95535,9.2765395 Z"
     id="path934" />
  <path
     id="contour1"
     style="font-style:normal;font-weight:normal;font-size:1222.56px;line-height:1.25;font-family:sans-serif;fill:#000000;fill-opacity:0.987952;stroke:none;stroke-width:3.79092"
     d="M 11.937401,0 C 10.659199,0 9.4546853,0.24546514 8.3239758,0.7362758 7.1932593,1.2271138 6.2100846,1.8896202 5.3743607,2.7240153 4.5385897,3.5584071 3.8749373,4.5400916 3.3833394,5.6689819 2.8917276,6.7978724 2.6458331,8.0003845 2.6458331,9.2765281 c 0,1.2025099 0.2212085,2.3681799 0.6636738,3.4970709 0.4670111,1.104353 1.1306835,2.086035 1.9910213,2.944966 V 84.666658 H 18.537358 l -7e-4,-10.019773 h -4.21e-4 l 8.2e-4,-52.159641 h -2.655106 l 5.6e-4,-8.351569 c 4.11543,1.200104 8.376369,1.737084 13.27361,1.730146 4.897242,-0.0069 10.797669,-0.891759 15.891526,-2.650457 5.093858,-1.758696 10.496493,-2.608985 15.891389,-2.613676 5.394895,-0.0047 10.640621,0.663908 15.891393,2.613676 l -7e-4,32.707464 5.309385,1.400086 7e-4,-37.6783164 C 80.222515,8.8838215 78.428207,8.2335311 76.756728,7.6936376 75.085214,7.129204 73.425923,6.675154 71.779037,6.3315618 70.132115,5.9634707 68.436086,5.7057721 66.690871,5.5585064 64.945635,5.3867339 63.02839,5.3009124 60.939033,5.3009124 l -1.4e-4,-1.401e-4 c -3.146332,0 -6.182015,0.2331992 -9.107123,0.6994963 -2.900524,0.4417368 -5.825594,1.2148244 -8.775287,2.3191662 -2.310593,0.85892 -4.596626,1.4601192 -6.858099,1.8037052 -2.236852,0.319044 -4.584327,0.478544 -7.042406,0.478544 -2.679292,0 -5.346288,-0.220844 -8.001,-0.662579 0.02467,-0.1227595 0.03692,-0.2331865 0.03692,-0.3312906 V 9.2765246 c 0,-1.2761436 -0.24577,-2.4664167 -0.737369,-3.5707664 C 19.962921,4.5768746 19.299263,3.5953271 18.463526,2.7609317 17.627775,1.9020033 16.644627,1.2271177 15.513911,0.7362758 14.407774,0.24546514 13.215596,0 11.937401,0 Z m -1.4e-4,5.3009124 c 0.540818,0 1.044794,0.1104263 1.511793,0.3312899 0.491605,0.196365 0.909382,0.4785243 1.253514,0.8466146 0.368732,0.3681136 0.651519,0.7975691 0.848119,1.2883798 0.221266,0.4662784 0.331837,0.9694149 0.331837,1.5093314 0,0.8589339 -0.245771,1.6320149 -0.73737,2.3191669 -0.491611,0.662598 -1.130741,1.128898 -1.917325,1.398855 v 9.492694 1.034205 51.125436 0.997561 3.721577 H 10.609917 V 12.99455 C 9.8233201,12.724586 9.1843276,12.258285 8.6927288,11.595695 8.2011309,10.908541 7.9552228,10.13546 7.9552228,9.2765281 h 1.393e-4 c 2e-6,-0.5399124 0.098317,-1.0552925 0.2949214,-1.546111 C 8.4714826,7.2396218 8.7541337,6.822409 9.0982658,6.4788169 9.4669977,6.1107959 9.8847811,5.8286366 10.35178,5.6322023 10.843418,5.4113387 11.371937,5.3009124 11.937267,5.3009124 Z"
     sodipodi:nodetypes="scccscccccccccsssccccccccccccscsscccsscccscccccccccccccccss" />
  <path
     style="font-style:normal;font-weight:normal;font-size:1222.56px;line-height:1.25;font-family:sans-serif;fill:#000000;fill-opacity:0.987952;stroke:none;stroke-width:1.88628"
     d="m 14.627919,52.923259 v 10.805275 h 3.907526 L 18.534916,61.7222 c 1.769807,0.343563 3.527374,0.589006 5.272608,0.736276 1.769807,0.14727 3.551919,0.220951 5.346307,0.220951 3.14635,0 6.169682,-0.220847 9.070205,-0.66258 2.925085,-0.466272 5.862505,-1.251593 8.812205,-2.355947 2.310591,-0.858962 4.584333,-1.448056 6.82118,-1.767062 2.261412,-0.319044 4.621103,-0.478543 7.079187,-0.478543 2.236848,0 4.215642,0.122796 5.936282,0.368204 1.745241,0.220877 3.404514,0.552129 4.977687,0.993871 1.597714,0.441734 3.207682,0.981592 4.830026,1.619669 1.62232,0.638072 3.441299,1.362059 5.456918,2.171911 l 7.93e-4,-37.647421 -5.309667,-1.400087 -7.94e-4,31.243533 c -4.823011,-1.92738 -10.539538,-2.61463 -15.891388,-2.650458 -5.35185,-0.03583 -10.804019,0.909037 -15.891388,2.650458 -5.08737,1.74142 -10.940293,2.65019 -15.891526,2.650455 -4.951234,2.64e-4 -8.818351,-0.487029 -13.273612,-1.767062 l 7.94e-4,-2.725109 z"
     id="contour2"
     sodipodi:nodetypes="cccccscccsccsccccsssccc" />
  <g
     id="content"
     transform="matrix(6.775107,0,0,6.910063,15.882956,14.136681)"
     inkscape:path-effect="#path-effect29030">
    <path
       width="9.0085745"
       height="6.0057163"
       fill="#ee1c25"
       id="path29012"
       x="0"
       y="0"
       style="stroke-width:1.00095"
       d="m 0,0 c 0.6308267,0.19935332 1.2947777,0.25026573 1.9563616,0.25041336 1e-7,0 2e-7,0 3e-7,0 9.632e-4,2.1e-7 0.00193,3.2e-7 0.00289,3.2e-7 l 2e-7,-4e-8 c 0.7946581,2e-8 1.5914117,-0.12533352 2.3431788,-0.38287302 2e-7,-5e-8 3e-7,-1e-7 4e-7,-1.5e-7 7.665e-4,-2.6256e-4 0.00153,-5.2526e-4 0.0023,-7.881e-4 l 4e-7,-7e-8 c 0.7514832,-0.25774321 1.5488326,-0.37808014 2.3432927,-0.37830041 7.285e-4,-2e-7 0.00146,-3e-7 0.00219,-3e-7 0.7979345,0 1.6058364,0.1129727 2.3583658,0.37830078 0.00169,2.00250263 0.00169,4.00440803 0,6.00571633 C 8.2564424,5.6065228 7.4501747,5.4943725 6.6523936,5.4941682 c -7.283e-4,-2e-7 -0.00146,-3e-7 -0.00218,-3e-7 -0.7942866,0 -1.5857759,0.1382644 -2.3431607,0.3775681 -1e-7,10e-8 -3e-7,10e-8 -4e-7,10e-8 -7.724e-4,2.441e-4 -0.00154,4.882e-4 -0.00232,7.325e-4 l -4e-7,10e-8 C 3.5472214,6.1120398 2.7565132,6.2689064 1.962141,6.256177 c -2e-7,0 -3e-7,0 -5e-7,0 -9.628e-4,-1.54e-5 -0.00193,-3.11e-5 -0.00289,-4.7e-5 l -5e-7,0 C 1.2979052,6.2451899 0.63026565,6.206375 0,6.0057163 0.00407876,4.0051046 0.00407876,2.0031992 0,0 Z"
       sodipodi:type="rect" />
    <path
       width="9"
       height="4"
       fill="#0b4ea2"
       id="path29014"
       x="0"
       y="0"
       d="m 0,0 c 0.6308267,0.19935332 1.2947777,0.25026573 1.9563616,0.25041336 2e-7,0 3e-7,0 5e-7,0 9.632e-4,2.1e-7 0.00193,3.2e-7 0.00289,3.2e-7 l 2e-7,-4e-8 c 0.7946581,2e-8 1.5914117,-0.12533352 2.3431788,-0.38287302 1e-7,-2e-8 2e-7,-5e-8 2e-7,-7e-8 7.665e-4,-2.6259e-4 0.00153,-5.2532e-4 0.0023,-7.8818e-4 l 4e-7,-7e-8 c 0.7514832,-0.25774321 1.5488326,-0.37808014 2.3432927,-0.37830041 7.285e-4,-2e-7 0.00146,-3e-7 0.00219,-3e-7 0.7950304,0 1.5999558,0.11215186 2.350147,0.37540983 0.00111,1.33374438 0.00148,2.66721408 0.00111,4.00040888 C 8.2499199,3.6019611 7.4458193,3.490206 6.6520061,3.4884257 c -7.19e-4,1.16e-5 -0.00144,2.32e-5 -0.00216,3.5e-5 -0.8147209,0.00645 -1.5979839,0.1353252 -2.3126545,0.3676104 -2e-7,0 -3e-7,1e-7 -4e-7,1e-7 -0.00104,3.408e-4 -0.00207,6.817e-4 -0.00311,0.00102 -0.8110486,0.2587739 -1.6066817,0.4084827 -2.3515037,0.3935489 -8.318e-4,-1.05e-5 -0.00166,-2.12e-5 -0.0025,-3.22e-5 -2e-7,0 -3e-7,0 -4e-7,0 C 1.2878524,4.2379877 0.61508628,4.1953548 0.00272176,4.0008633 0.00362384,2.6678161 0.00271659,1.334195 0,0 Z"
       sodipodi:type="rect" />
    <path
       width="9"
       height="2"
       fill="#ffffff"
       id="path29016"
       x="0"
       y="0"
       d="m 0,0 c 0.6308267,0.19935332 1.2947777,0.25026573 1.9563616,0.25041336 2e-7,0 3e-7,0 5e-7,0 9.632e-4,2.1e-7 0.00193,3.2e-7 0.00289,3.2e-7 l 2e-7,-4e-8 c 0.7946581,2e-8 1.5914117,-0.12533352 2.3431788,-0.38287302 1e-7,-2e-8 2e-7,-5e-8 2e-7,-7e-8 7.665e-4,-2.6259e-4 0.00153,-5.2532e-4 0.0023,-7.8818e-4 l 4e-7,-7e-8 c 0.7514832,-0.25774321 1.5488326,-0.37808014 2.3432927,-0.37830041 7.285e-4,-2e-7 0.00146,-3e-7 0.00219,-3e-7 0.7950304,0 1.5999558,0.11215186 2.350147,0.37540983 5.548e-4,0.66687221 9.25e-4,1.33367568 0.00111,2.00041058 C 8.2497844,1.6021623 7.4451437,1.4901358 6.651278,1.4884257 c -7.19e-4,1.16e-5 -0.00144,2.33e-5 -0.00216,3.51e-5 -0.8147496,0.00651 -1.5999787,0.1294241 -2.312742,0.3678687 -2e-7,1e-7 -3e-7,1e-7 -4e-7,2e-7 -0.00103,3.469e-4 -0.00207,6.938e-4 -0.0031,0.00104 -0.8090575,0.2647388 -1.6066996,0.4039417 -2.3516875,0.3932563 -8.32e-4,-5.4e-6 -0.00166,-1.1e-5 -0.0025,-1.67e-5 -1e-7,0 -3e-7,0 -4e-7,0 C 1.2868237,2.2415889 0.61529501,2.194927 0.00271788,2.0008621 0.00226425,1.3340515 0.00135829,0.66709751 0,0 Z"
       sodipodi:type="rect" />
    <g
       id="g29026">
      <path
         fill="#ffffff"
         d="M 3.1697954,4.7848792 C 2.7328512,4.6539071 2.2038645,4.350326 1.9844439,3.6953424 c -8.19e-4,-0.00267 -0.00163,-0.00535 -0.00244,-0.00803 -0.06576,-0.1766434 -0.104036,-0.373986 -0.1042927,-0.5939605 -0.00119,-1.016641 0.044669,-1.4783779 0.044669,-1.4783779 0.017273,2.25e-4 0.034556,4.22e-4 0.051849,5.928e-4 8.598e-4,4e-6 0.00172,7.9e-6 0.00258,1.16e-5 0.3884001,0.00411 0.7879776,-0.029629 1.1928747,-0.099249 0.3825822,-0.065783 0.7699138,-0.163603 1.1570532,-0.2918039 9.784e-4,-3.299e-4 0.00196,-6.598e-4 0.00294,-9.899e-4 0.035706,-0.012047 0.071578,-0.023796 0.1076094,-0.035248 0,0 0.052217,0.4464453 0.053705,1.4635933 4.255e-4,0.2907401 -0.057653,0.5571434 -0.1514822,0.8020988 -0.00106,0.00202 -0.00213,0.00403 -0.00319,0.00605 C 4.0632039,4.0878887 3.554636,4.5318072 3.1697954,4.7848792 Z"
         id="path29018"
         inkscape:original-d="M 3.16255,4.635 C 2.62474,4.37595 1.85545,3.86177 1.85545,2.84467 1.85545,1.82756 1.90408,1.365 1.90408,1.365 h 1.25847 1.2585 c 0,0 0.04864,0.46256 0.04864,1.47967 0,1.0171 -0.76929,1.53128 -1.30714,1.79033 z" />
      <path
         fill="#ee1c25"
         d="M 3.1690788,4.6500636 C 2.6577091,4.4967889 1.9926256,4.0707346 1.9914325,3.1082656 c -0.00116,-0.9329682 0.036509,-1.3573143 0.036509,-1.3573143 0.3713905,0.0011 0.7534317,-0.032742 1.1410356,-0.099556 0.3826773,-0.065964 0.7707768,-0.1640668 1.159402,-0.2924102 9.926e-4,-3.342e-4 0.00199,-6.685e-4 0.00298,-0.001 0.00377,-0.00127 0.00755,-0.00254 0.011322,-0.0038 0,0 0.048188,0.4086789 0.049558,1.3414217 2.336e-4,0.159027 -0.018492,0.3105375 -0.051813,0.4548449 -0.00106,0.00324 -0.00213,0.00648 -0.00322,0.00972 -0.1918543,0.7145575 -0.761276,1.2224777 -1.168122,1.4898958 -2.7e-6,5e-7 -5.3e-6,1e-6 -8e-6,1.4e-6 z"
         id="path29020"
         inkscape:original-d="M 3.16255,4.5 C 2.66915,4.26234 1.96338,3.79062 1.96338,2.85749 1.96338,1.924362 2.007992,1.5 2.007992,1.5 h 1.15456 1.15459 c 0,0 0.044626,0.424365 0.044626,1.35749 0,0.933128 -0.705776,1.40485 -1.19921,1.64251 z" />
      <path
         fill="#ffffff"
         d="m 3.2721046,2.7448749 c 0.1394541,-0.024291 0.3964856,-0.073274 0.6409616,-0.2192885 0,0 -0.00627,0.084662 -0.00623,0.1812851 4.26e-5,0.096648 0.00639,0.177874 0.00639,0.177874 C 3.702019,2.874186 3.414808,2.9342827 3.2719169,2.9633006 3.2718266,3.1350044 3.2718752,3.3066882 3.2720627,3.478352 3.2008529,3.491978 3.129937,3.5045076 3.059342,3.5159077 3.059125,3.3441971 3.05906,3.1724557 3.059147,3.0006835 2.9164828,3.0217927 2.6376657,3.0611069 2.4397596,3.1419364 c 0,0 0.00594,-0.083481 0.00592,-0.1803258 -1.76e-5,-0.096818 -0.00599,-0.1795608 -0.00599,-0.1795608 0.2305893,0.064517 0.4803191,0.024667 0.6196519,1.096e-4 1.355e-4,-0.1078929 3.31e-4,-0.2157979 5.864e-4,-0.3237151 -0.1215295,0.0183 -0.298298,0.04894 -0.4923768,0.1316314 0,0 0.00608,-0.083645 0.00618,-0.1805212 1.039e-4,-0.09686 -0.00581,-0.17951 -0.00581,-0.17951 0.1952376,0.050006 0.3693143,0.031598 0.4920561,0.011049 -0.00564,-0.2038335 -0.064379,-0.4534664 -0.064379,-0.4534664 0,0 0.123044,-0.00953 0.1728113,-0.018125 0.049288,-0.00851 0.1737245,-0.041717 0.1737245,-0.041717 0,0 -0.061437,0.270127 -0.068369,0.4760906 0.1235345,-0.022289 0.3009041,-0.065034 0.5045042,-0.1836619 0,0 -0.00628,0.084528 -0.00628,0.181133 -5e-7,0.096619 0.0063,0.1779368 0.0063,0.1779368 -0.2031031,-0.013871 -0.3832871,0.01776 -0.5056264,0.042011 -2.403e-4,0.1078598 -4.257e-4,0.2157117 -5.564e-4,0.3235558 0,0 1e-6,2.38e-5 1e-6,2.38e-5 z"
         id="path29022"
         inkscape:original-d="M 3.26808,2.61284 C 3.401679,2.615 3.662335,2.62023 3.894432,2.542567 c 0,0 -0.00613,0.083055 -0.00613,0.179805 0,0.096773 0.00613,0.179822 0.00613,0.179822 -0.21289,-0.07125 -0.4758,-0.07273 -0.62635,-0.07082 V 3.346765 H 3.057049 V 2.831374 c -0.150545,-0.00191 -0.41345,-4.252e-4 -0.626352,0.070815 0,0 0.00613,-0.083049 0.00613,-0.179822 0,-0.09675 -0.00613,-0.179805 -0.00613,-0.179805 0.2321,0.077665 0.492753,0.072432 0.626352,0.070273 V 2.289159 c -0.121766,-0.00108 -0.297234,0.00473 -0.49563,0.071126 0,0 0.00613,-0.083055 0.00613,-0.179822 0,-0.096756 -0.00613,-0.179811 -0.00613,-0.179811 0.198103,0.066283 0.373356,0.072192 0.495088,0.071137 -0.00626,-0.20498 -0.06597,-0.46332 -0.06597,-0.46332 0,0 0.12289,0.00959 0.172016,0.00959 0.049178,0 0.172031,-0.00959 0.172031,-0.00959 0,0 -0.059695,0.258346 -0.065964,0.463301 0.121741,0.00106 0.296989,-0.00485 0.495086,-0.071137 0,0 -0.00613,0.083055 -0.00613,0.179811 0,0.096767 0.00613,0.179822 0.00613,0.179822 C 3.565318,2.293874 3.389843,2.288059 3.268079,2.28914 v 0.323676 z" />
      <path
         fill="#0b4ea2"
         d="m 3.165344,3.4421865 c -0.2498991,0.044105 -0.3809261,0.4013934 -0.3809261,0.4013934 0,0 -0.073772,-0.1517122 -0.272525,-0.1364909 C 2.3778354,3.7173557 2.2804879,3.8426035 2.2185421,3.9571581 2.4635493,4.356679 2.8461803,4.5532996 3.1690244,4.6500733 3.4848741,4.4424693 3.8865442,4.102109 4.1498197,3.6213415 4.0834213,3.5281336 3.9788466,3.4372612 3.8372484,3.4746108 3.6287755,3.5295999 3.5531283,3.7079302 3.5531283,3.7079302 c 0,0 -0.136524,-0.3100891 -0.3877853,-0.2657435 3e-7,-1e-7 6e-7,-2e-7 1e-6,-2e-7 z"
         id="path29024"
         inkscape:original-d="m 3.1625,3.29094 c -0.24847,0 -0.381562,0.344688 -0.381562,0.344688 0,0 -0.073834,-0.163438 -0.276562,-0.163438 -0.137161,0 -0.238243,0.12201 -0.3025,0.235 0.24954,0.39705 0.64768,0.64207 0.96062,0.79281 0.31299,-0.15075 0.71139,-0.39571 0.96094,-0.79281 -0.064256,-0.11299 -0.165339,-0.235 -0.3025,-0.235 -0.202734,0 -0.276875,0.163438 -0.276875,0.163438 0,0 -0.133073,-0.344688 -0.381562,-0.344688 z" />
    </g>
  </g>
</svg>
