<?xml version="1.0" encoding="UTF-8" standalone="no"?>
<svg
   xmlns:dc="http://purl.org/dc/elements/1.1/"
   xmlns:cc="http://creativecommons.org/ns#"
   xmlns:rdf="http://www.w3.org/1999/02/22-rdf-syntax-ns#"
   xmlns:svg="http://www.w3.org/2000/svg"
   xmlns="http://www.w3.org/2000/svg"
   xmlns:sodipodi="http://sodipodi.sourceforge.net/DTD/sodipodi-0.dtd"
   xmlns:inkscape="http://www.inkscape.org/namespaces/inkscape"
   width="32cm"
   height="32cm"
   viewBox="0 0 319.99999 319.99996"
   version="1.1"
   inkscape:version="1.0.2 (e86c870879, 2021-01-15, custom)"
   id="svg991"
   sodipodi:docname="flag-simple.svg">
  <metadata
     id="metadata995">
    <rdf:RDF>
      <cc:Work
         rdf:about="">
        <dc:format>image/svg+xml</dc:format>
        <dc:type
           rdf:resource="http://purl.org/dc/dcmitype/StillImage" />
        <dc:title />
      </cc:Work>
    </rdf:RDF>
  </metadata>
  <defs
     id="defs993">
    <inkscape:path-effect
       effect="envelope"
       id="path-effect58707"
       is_visible="false"
       lpeversion="1"
       yy="true"
       xx="false"
       bendpath1="m 0,0 c 725.67534,170.86345 994.08188,205.95933 1611.5819,205.95933 617.5,0 1317.7823,-103.446 1929.2726,-315.55235 611.4903,-212.10635 1311.7727,-311.14344 1929.2727,-311.14344 617.5,0 1419.948,104.92893 1929.2726,311.14344"
       bendpath2="M 7410,0 V 3900"
       bendpath3="m 0,3900 c 647.5487,153.1879 993.76068,205.9597 1611.2607,205.9597 617.5,0 1312.0938,-97.5542 1929.5938,-315.5524 617.5,-217.9982 1311.7727,-311.1434 1929.2727,-311.1434 617.5,0 1371.87,81.3616 1929.2726,311.1434"
       bendpath4="M 0,0 V 3900"
       bendpath1-nodetypes="czzzc"
       bendpath3-nodetypes="czzzc" />
    <inkscape:path-effect
       effect="envelope"
       id="path-effect58217"
       is_visible="false"
       lpeversion="1"
       yy="true"
       xx="false"
       bendpath1="m 0,0 c 725.67534,170.86345 994.08188,205.95933 1611.5819,205.95933 617.5,0 1317.7823,-103.446 1929.2726,-315.55235 611.4903,-212.10635 1311.7727,-311.14344 1929.2727,-311.14344 617.5,0 1419.948,104.92893 1929.2726,311.14344"
       bendpath2="M 7410,0 V 3900"
       bendpath3="m 0,3900 c 647.5487,153.1879 993.76068,205.9597 1611.2607,205.9597 617.5,0 1312.0938,-97.5542 1929.5938,-315.5524 617.5,-217.9982 1311.7727,-311.1434 1929.2727,-311.1434 617.5,0 1371.87,81.3616 1929.2726,311.1434"
       bendpath4="M 0,0 V 3900"
       bendpath1-nodetypes="czzzc"
       bendpath3-nodetypes="czzzc" />
    <inkscape:path-effect
       effect="simplify"
       id="path-effect29032"
       is_visible="true"
       lpeversion="1"
       steps="5"
       threshold="0.0002"
       smooth_angles="0"
       helper_size="5"
       simplify_individual_paths="false"
       simplify_just_coalesce="false" />
    <inkscape:path-effect
       effect="envelope"
       id="path-effect29030"
       is_visible="true"
       lpeversion="1"
       yy="true"
       xx="false"
       bendpath1="m 0,0 c 0.8840544,0.27937812 1.2085371,0.25041368 1.9592516,0.25041368 0.7507146,0 1.6425142,-0.14255904 2.3454786,-0.38366131 0.7029644,-0.24110227 1.594764,-0.37830078 2.3454785,-0.37830078 0.7507146,0 1.9351864,0.22909548 2.3583658,0.37830078"
       bendpath2="m 9.0012682,0.01432705 0.00731,5.99138925"
       bendpath3="M 0,6.0057163 C 0.76100014,6.2479972 1.3502775,6.2457599 1.9592516,6.25613 2.715955,6.2683511 3.4783306,6.1338273 4.3047302,5.8724687 5.1311298,5.6111101 5.8994942,5.4941679 6.6502087,5.4941679 c 0.7507146,0 1.8701016,0.2056558 2.3583658,0.3783008"
       bendpath4="M 0,0 C 0.3580055,0.73784477 0,6.0057163 0,6.0057163"
       bendpath1-nodetypes="czzzc"
       bendpath3-nodetypes="cczsc"
       bendpath4-nodetypes="cc"
       bendpath2-nodetypes="cc" />
    <inkscape:path-effect
       effect="envelope"
       id="path-effect29010"
       is_visible="true"
       lpeversion="1"
       yy="true"
       xx="false"
       bendpath1="m 0,0 c 0.8840544,0.27937812 1.2085371,0.27951373 1.9592516,0.27951373 0.7507146,0 1.6166827,-0.14823866 2.3454786,-0.34881782 C 5.033526,-0.26988325 5.8994942,-0.41314427 6.6502087,-0.41314427 7.4009233,-0.41314427 9.0085745,0 9.0085745,0"
       bendpath2="m 9.0012682,0.01432705 0.00731,5.99138925"
       bendpath3="M 0,6.0057163 C 0.76100014,6.2479972 1.3502775,6.2748599 1.9592516,6.28523 2.715955,6.2974511 3.5403261,6.1521823 4.3047302,5.9364122 5.0691343,5.7206421 5.8994942,5.592572 6.6502087,5.592572 c 0.7507146,0 2.3583658,0.4131443 2.3583658,0.4131443"
       bendpath4="M 0,0 C 0.3580055,0.73784477 0,6.0057163 0,6.0057163"
       bendpath1-nodetypes="czzzc"
       bendpath3-nodetypes="cczsc"
       bendpath4-nodetypes="cc"
       bendpath2-nodetypes="cc" />
    <inkscape:path-effect
       effect="perspective-envelope"
       up_left_point="754.54185,-13.360092"
       up_right_point="984.89618,-9.88"
       down_left_point="754.54189,163.52742"
       down_right_point="984.89618,167.01"
       id="path-effect28990"
       is_visible="true"
       lpeversion="1"
       deform_type="perspective"
       horizontal_mirror="false"
       vertical_mirror="false"
       overflow_perspective="false" />
    <inkscape:path-effect
       effect="envelope"
       id="path-effect940"
       is_visible="true"
       lpeversion="1"
       yy="true"
       xx="true"
       bendpath1="M 0,0 C 0.66583933,0.35852887 1.4099689,0.46553877 2.1891278,0.44953302 2.9682868,0.43352722 3.7824751,0.29450586 4.5884318,0.16097215 5.3943886,0.02743843 6.1921138,-0.1006076 6.9383466,-0.0946626 7.6845794,-0.0887176 8.5549258,0.67710083 8.9793069,0.99172821"
       bendpath2="M 9.0085745,0.95198673 V 2.6396741 c 0,0 -0.034271,1.2572044 -0.029268,1.8858902 0.00247,0.3103801 0.029268,0.9307097 0.029268,0.9307097 v 1.5014291"
       bendpath3="M 0.04390149,6.0203501 C 0.73242225,6.3874154 1.4639299,6.4764378 2.2173883,6.4364997 2.9708467,6.3965615 3.7462558,6.2276627 4.5225796,6.0788854 5.2989033,5.9301081 6.0761417,5.8014524 6.8332585,5.8420003 7.5903754,5.8825482 8.1517647,6.229635 9.0232084,6.8893769"
       bendpath4="m 0,0 c 0,0 0,1.0009527 0,1.5014291 0,0.5004763 0,1.0009527 0,1.501429 0,0.5004764 0,1.0009528 0,1.5014291 0,0.5004764 0,1.5014291 0,1.5014291"
       bendpath2-nodetypes="csasc"
       bendpath1-nodetypes="csssc"
       bendpath3-nodetypes="csssc"
       bendpath4-nodetypes="czzzc" />
    <inkscape:path-effect
       effect="skeletal"
       id="path-effect938"
       is_visible="true"
       lpeversion="1"
       pattern="M 0,0 H 1"
       copytype="single_stretched"
       prop_scale="1"
       scale_y_rel="false"
       spacing="0"
       normal_offset="0"
       tang_offset="0"
       prop_units="false"
       vertical_pattern="false"
       hide_knot="false"
       fuse_tolerance="0" />
    <inkscape:path-effect
       effect="bend_path"
       id="path-effect936"
       is_visible="true"
       lpeversion="1"
       bendpath="M -0.26340896,3.2077317 C 0.6585224,3.2223656 0.97461116,3.3833377 1.5789874,3.6613805 2.1833636,3.9394233 3.2495718,1.9975915 4.006737,1.9492223 4.7639022,1.900853 6.2985091,2.1035759 6.9027692,2.6223785 7.5070293,3.1411811 7.9048203,2.9353003 8.6866302,2.9443228"
       prop_scale="1"
       scale_y_rel="false"
       vertical="false"
       hide_knot="false"
       bendpath-nodetypes="czzzc" />
    <inkscape:path-effect
       effect="perspective-envelope"
       up_left_point="0,-0.41314427"
       up_right_point="9.0085745,-0.76"
       down_left_point="0,6.2860098"
       down_right_point="9.0085745,5.94"
       id="path-effect913"
       is_visible="true"
       lpeversion="1"
       deform_type="perspective"
       horizontal_mirror="false"
       vertical_mirror="false"
       overflow_perspective="false" />
    <inkscape:path-effect
       effect="envelope"
       id="path-effect911"
       is_visible="true"
       lpeversion="1"
       yy="true"
       xx="false"
       bendpath1="m 0,0 c 0.8840544,0.27937812 1.2085371,0.27951373 1.9592516,0.27951373 0.7507146,0 1.6166827,-0.14823866 2.3454786,-0.34881782 C 5.033526,-0.26988325 5.8994942,-0.41314427 6.6502087,-0.41314427 7.4009233,-0.41314427 9.0085745,0 9.0085745,0"
       bendpath2="m 9.0012682,0.01432705 0.00731,5.99138925"
       bendpath3="M 0,6.0057163 C 0.76100014,6.2479972 1.3502775,6.2748599 1.9592516,6.28523 2.715955,6.2974511 3.5403261,6.1521823 4.3047302,5.9364122 5.0691343,5.7206421 5.8994942,5.592572 6.6502087,5.592572 c 0.7507146,0 2.3583658,0.4131443 2.3583658,0.4131443"
       bendpath4="M 0,0 C 0.3580055,0.73784477 0,6.0057163 0,6.0057163"
       bendpath1-nodetypes="czzzc"
       bendpath3-nodetypes="cczsc"
       bendpath4-nodetypes="cc"
       bendpath2-nodetypes="cc" />
    <inkscape:path-effect
       effect="envelope"
       id="path-effect896"
       is_visible="true"
       lpeversion="1"
       yy="true"
       xx="false"
       bendpath1="m 0,0 c 0.8840544,0.27937812 1.2085371,0.25041368 1.9592516,0.25041368 0.7507146,0 1.6425142,-0.14255904 2.3454786,-0.38366131 0.7029644,-0.24110227 1.594764,-0.37830078 2.3454785,-0.37830078 0.7507146,0 1.9351864,0.22909548 2.3583658,0.37830078"
       bendpath2="m 9.0012682,0.01432705 0.00731,5.99138925"
       bendpath3="M 0,6.0057163 C 0.76100014,6.2479972 1.3502775,6.2457599 1.9592516,6.25613 2.715955,6.2683511 3.4783306,6.1338273 4.3047302,5.8724687 5.1311298,5.6111101 5.8994942,5.4941679 6.6502087,5.4941679 c 0.7507146,0 1.8701016,0.2056558 2.3583658,0.3783008"
       bendpath4="M 0,0 C 0.3580055,0.73784477 0,6.0057163 0,6.0057163"
       bendpath1-nodetypes="czzzc"
       bendpath3-nodetypes="cczsc"
       bendpath4-nodetypes="cc"
       bendpath2-nodetypes="cc" />
    <inkscape:path-effect
       effect="perspective-envelope"
       up_left_point="399.99996,-13.360092"
       up_right_point="529.01888,-34.262173"
       down_left_point="399.99996,146.64014"
       down_right_point="630.35429,146.64014"
       id="path-effect874"
       is_visible="true"
       lpeversion="1"
       deform_type="envelope_deformation"
       horizontal_mirror="false"
       vertical_mirror="false"
       overflow_perspective="false" />
    <inkscape:path-effect
       effect="perspective-envelope"
       up_left_point="399.99996,-13.360092"
       up_right_point="630.35429,-9.8799999"
       down_left_point="400,163.52742"
       down_right_point="630.35429,167.01"
       id="path-effect872"
       is_visible="true"
       lpeversion="1"
       deform_type="perspective"
       horizontal_mirror="false"
       vertical_mirror="false"
       overflow_perspective="false" />
    <inkscape:path-effect
       effect="envelope"
       id="path-effect28309"
       is_visible="true"
       lpeversion="1"
       yy="true"
       xx="true"
       bendpath1="m 0,0 c 0.78907335,0.18625208 1.2337465,0.26310698 1.9592517,0.25041369 0.7255052,-0.0126933 1.6367142,-0.17070522 2.3454786,-0.38366132 0.7087644,-0.2129561 1.5470453,-0.39970895 2.3454785,-0.37830078 0.7984332,0.0214082 1.4833429,0.077432 2.3454786,0.37830078"
       bendpath2="M 9.0085745,0 V 6.0057163"
       bendpath3="m 0,6.0057163 c 0,0 1.2081466,0.2573058 1.9588612,0.2573058 0.7507145,0 1.6093765,-0.139718 2.3454785,-0.3832784 0.7361021,-0.2435604 1.594764,-0.4039229 2.3454786,-0.4039229 0.7507145,0 1.6733049,0.1245448 2.3454785,0.4039229"
       bendpath4="M 0,0 V 6.0057163"
       bendpath1-nodetypes="czzzc"
       bendpath3-nodetypes="czzzc" />
    <inkscape:path-effect
       effect="join_type"
       id="path-effect28307"
       is_visible="true"
       lpeversion="1"
       linecap_type="butt"
       line_width="1"
       linejoin_type="extrp_arc"
       miter_limit="100"
       attempt_force_join="true" />
    <inkscape:path-effect
       effect="lattice2"
       gridpoint0="0,0"
       gridpoint1="9.0085745,-0.12156933"
       gridpoint2="0,6.0057163"
       gridpoint3="9.0085745,6.0057163"
       gridpoint4="2.3348043,0.79020063"
       gridpoint5="6.9837475,-0.91176997"
       gridpoint6="2.5001256,6.8364401"
       gridpoint7="7.0250779,4.9318539"
       gridpoint8x9="4.6902736,-0.16209244"
       gridpoint10x11="4.731604,5.8638855"
       gridpoint12="0,1.5014291"
       gridpoint13="9.0085745,1.5014291"
       gridpoint14="0,4.5042872"
       gridpoint15="9.0085745,4.5042872"
       gridpoint16="2.3554694,2.190322"
       gridpoint17="6.9837475,0.60992067"
       gridpoint18="2.3967997,5.2944879"
       gridpoint19="7.0870734,3.5925173"
       gridpoint20x21="4.6489433,1.0556749"
       gridpoint22x23="4.6282782,4.3016717"
       gridpoint24x26="0,3.0028582"
       gridpoint25x27="9.0085745,3.0028582"
       gridpoint28x30="2.3761344,3.7322741"
       gridpoint29x31="7.0250778,2.010042"
       gridpoint32x33x34x35="4.6489433,2.6381502"
       id="path-effect28305"
       is_visible="true"
       lpeversion="1"
       horizontal_mirror="false"
       vertical_mirror="false"
       perimetral="false"
       live_update="true" />
    <inkscape:path-effect
       effect="envelope"
       id="path-effect139"
       is_visible="true"
       lpeversion="1"
       yy="true"
       xx="false"
       bendpath1="M 0.09302471,0.42181134 C 4.9244867,1.5220988 9.118853,1.919386 15.096091,1.9091998 c 7.84604,-0.013371 13.40874,-1.06234116 17.711117,-2.21010536 5.295236,-1.41263374 10.792426,-2.36014034 18.396961,-2.32671434 10.484227,0.04608 14.066199,1.1373959 17.806676,2.24736904"
       bendpath2="M 1000,0 V 600"
       bendpath3="m 0.39755868,30.34013 c 3.03843802,0.68521 7.83946592,1.534271 14.92475832,1.548091 8.619105,0.01681 13.279767,-1.151056 17.99248,-2.309213 4.712713,-1.158156 10.962349,-2.399588 19.200871,-2.282511 6.847031,0.0973 12.285723,0.984135 16.768204,2.307692"
       bendpath4="M 0,0 V 600"
       bendpath1-nodetypes="csssc"
       bendpath3-nodetypes="csssc" />
    <inkscape:path-effect
       effect="simplify"
       id="path-effect137"
       is_visible="true"
       lpeversion="1"
       steps="5"
       threshold="0.0005"
       smooth_angles="0"
       helper_size="5"
       simplify_individual_paths="true"
       simplify_just_coalesce="false" />
    <inkscape:path-effect
       effect="envelope"
       id="path-effect2610"
       is_visible="true"
       lpeversion="1"
       yy="false"
       xx="false"
       bendpath1="m -0.84808647,13.989298 c 0,0 70.99798147,27.980502 220.83282647,29.010702 C 333.84435,43.78285 405.05868,23.03285 474.72259,2.0871375 544.38651,-18.858575 612.5,-40 750,-40 c 160,0 250,40 250,40"
       bendpath2="M 1000,0 V 600"
       bendpath3="m 0,600 c 0,0 71.016438,23.99669 220.9439,24.67765 125.08003,0.56811 188.67927,-20.49764 257.07048,-41.55409 68.3912,-21.05645 141.57437,-42.10361 285.82226,-41.49833 C 908.51731,542.23232 1000,585.30019 1000,585.30019"
       bendpath4="M 0,0 V 600"
       bendpath1-nodetypes="csssc"
       bendpath3-nodetypes="csssc" />
    <inkscape:path-effect
       effect="simplify"
       id="path-effect2608"
       is_visible="true"
       lpeversion="1"
       steps="5"
       threshold="0.002"
       smooth_angles="0"
       helper_size="5"
       simplify_individual_paths="true"
       simplify_just_coalesce="false" />
    <inkscape:path-effect
       effect="envelope"
       id="path-effect2584"
       is_visible="false"
       lpeversion="1"
       yy="true"
       xx="false"
       bendpath1="m -0.84808647,13.989298 c 0,0 70.99798147,27.980502 220.83282647,29.010702 C 333.84435,43.78285 405.05868,23.03285 474.72259,2.0871375 544.38651,-18.858575 612.5,-40 750,-40 c 160,0 250,40 250,40"
       bendpath2="M 1000,0 V 600"
       bendpath3="m 0,600 c 0,0 71.016438,23.99669 220.9439,24.67765 125.08003,0.56811 188.67927,-20.49764 257.07048,-41.55409 68.3912,-21.05645 141.57437,-42.10361 285.82226,-41.49833 C 908.51731,542.23232 1000,585.30019 1000,585.30019"
       bendpath4="M 0,0 V 600"
       bendpath1-nodetypes="csssc"
       bendpath3-nodetypes="csssc" />
    <inkscape:path-effect
       effect="simplify"
       id="path-effect2582"
       is_visible="true"
       lpeversion="1"
       steps="5"
       threshold="0.002"
       smooth_angles="0"
       helper_size="5"
       simplify_individual_paths="true"
       simplify_just_coalesce="false" />
    <inkscape:path-effect
       effect="simplify"
       id="path-effect897"
       is_visible="true"
       lpeversion="1"
       steps="5"
       threshold="0.0005"
       smooth_angles="0"
       helper_size="5"
       simplify_individual_paths="true"
       simplify_just_coalesce="false" />
    <inkscape:path-effect
       effect="envelope"
       id="path-effect903"
       is_visible="false"
       lpeversion="1"
       yy="true"
       xx="false"
       bendpath1="M -0.02781534,15.226854 C 70.086687,35.23118 130.9556,42.454259 217.69768,42.269064 331.55993,42.025967 412.28621,22.954639 474.72259,2.0871375 551.56741,-23.595956 631.343,-40.82257 741.70051,-40.214854 c 152.14781,0.837847 204.12962,20.678993 258.41169,40.85941461"
       bendpath2="M 1000,0 V 600"
       bendpath3="M 0.31722306,596.96151 C 44.411229,609.41931 114.08407,624.8561 216.90631,625.10736 c 125.08103,0.30564 192.71686,-20.92735 261.10807,-41.9838 68.3912,-21.05645 159.08633,-43.62691 278.64432,-41.49833 99.36457,1.76906 178.29123,17.89254 243.3413,41.95613"
       bendpath4="M 0,0 V 600"
       bendpath1-nodetypes="csssc"
       bendpath3-nodetypes="csssc" />
    <clipPath
       id="a">
      <path
         d="M 0,0 V 30 H 60 V 0 Z"
         id="path24484" />
    </clipPath>
    <clipPath
       id="b">
      <path
         d="m 30,15 h 30 v 15 z m 0,0 V 30 H 0 Z m 0,0 H 0 V 0 Z m 0,0 V 0 h 30 z"
         id="path24487" />
    </clipPath>
  </defs>
  <sodipodi:namedview
     pagecolor="#ffffff"
     bordercolor="#666666"
     borderopacity="1.0"
     inkscape:pageopacity="0.0"
     inkscape:pageshadow="2"
     inkscape:zoom="0.25000001"
     inkscape:cx="1029.4085"
     inkscape:cy="373.91382"
     inkscape:document-units="cm"
     inkscape:current-layer="svg991"
     inkscape:document-rotation="0"
     showgrid="true"
     units="cm"
     inkscape:window-width="1920"
     inkscape:window-height="1017"
     inkscape:window-x="-8"
     inkscape:window-y="-8"
     inkscape:window-maximized="1"
     inkscape:snap-global="false"
     id="namedview977">
    <inkscape:grid
       type="xygrid"
       empspacing="8"
       color="#ff3ff2"
       opacity="0.1254902"
       dotted="false"
       id="grid975"
       units="cm"
       spacingx="9.9999989"
       spacingy="9.9999989" />
  </sodipodi:namedview>
  <path
     style="font-style:normal;font-weight:normal;font-size:1222.56px;line-height:1.25;font-family:sans-serif;fill:#ffffff;fill-opacity:1;stroke:none;stroke-width:7.12925"
     d="m 30.067114,35.060948 q 0,4.869536 2.787015,8.76521 2.787015,3.756418 7.246467,5.286928 V 299.96567 h 9.894283 V 49.113086 q 4.459375,-1.530468 7.246465,-5.286928 2.787016,-3.895662 2.787016,-8.76521 0,-3.060948 -1.254422,-5.704406 -1.114579,-2.782551 -3.205029,-4.869495 -1.950987,-2.086812 -4.73804,-3.200063 -2.647551,-1.25214 -5.713608,-1.25214 -3.205029,0 -5.992271,1.25214 -2.647552,1.113644 -4.738003,3.200063 -1.950986,1.947924 -3.205029,4.730387 -1.11458,2.782593 -1.11458,5.843514 z"
     id="path934" />
  <path
     d="m 230.3207,20.034765 c 7.89679,0 15.14327,0.32461 21.73944,0.973829 6.59609,0.556595 13.00642,1.530497 19.23101,2.921708 6.22446,1.298616 12.49546,3.014571 18.81299,5.147865 6.31739,2.040543 13.09933,4.498503 20.34583,7.373878 l -0.009,200.029175 c -7.61809,-3.06086 -14.49295,-5.79709 -20.62456,-8.2087 -6.13171,-2.41163 -12.21687,-4.45223 -18.25548,-6.12178 -5.94587,-1.66957 -12.21689,-2.92176 -18.81308,-3.75657 -6.50321,-0.92753 -13.98192,-1.3913 -22.43615,-1.3913 -9.2904,0 -18.20914,0.60292 -26.75621,1.80876 -8.45423,1.20569 -17.04781,3.43177 -25.78076,6.67824 -11.14847,4.17394 -22.25042,7.14206 -33.30586,8.90435 -10.96261,1.66954 -22.38978,2.50431 -34.2815,2.50431 -6.78194,0 -13.517427,-0.2783 -20.206462,-0.83491 -6.596163,-0.55661 -13.238763,-1.48417 -19.927801,-2.78268 l 0.0093,86.71903 H 20.033594 V 59.408776 c -3.251669,-3.246361 -5.760046,-6.956508 -7.52513,-11.130442 -1.67231,-4.266675 -2.508465,-8.672471 -2.508465,-13.217386 0,-4.823221 0.92903,-9.368169 2.787091,-13.634843 1.85801,-4.266673 4.366425,-7.976813 7.525244,-11.13042 C 23.470976,7.1420643 27.187085,4.6376858 31.46066,2.7825495 35.734209,0.9275165 40.286485,0 45.117488,0 c 4.830978,0 9.336804,0.9275165 13.517477,2.7825495 4.273575,1.8551511 7.989735,4.405899 11.148478,7.6522435 3.158693,3.153621 5.667069,6.863769 7.52513,11.130442 1.858011,4.173921 2.787016,8.672492 2.787016,13.495713 v 1.25214 c 0,0.370787 -0.04661,0.788167 -0.139843,1.252139 10.033559,1.669549 20.113564,2.504324 30.240024,2.504324 9.29038,0 18.16269,-0.60292 26.61694,-1.808759 8.5473,-1.298591 17.18742,-3.571042 25.92037,-6.817355 11.14845,-4.173891 22.20398,-7.095614 33.16659,-8.765171 11.05553,-1.762383 22.52912,-2.643575 34.42077,-2.643575 z M 30.067114,35.060948 c 0,3.246357 0.929005,6.168094 2.787015,8.76521 1.85801,2.504279 4.273499,4.266588 7.246467,5.286928 V 299.96567 h 9.894283 V 49.113086 c 2.972917,-1.020312 5.388405,-2.782621 7.246465,-5.286928 1.858011,-2.597108 2.787016,-5.518845 2.787016,-8.76521 0,-2.040632 -0.418141,-3.942101 -1.254422,-5.704406 -0.743053,-1.855034 -1.811396,-3.478199 -3.205029,-4.869495 -1.300658,-1.391208 -2.880005,-2.457896 -4.73804,-3.200063 -1.765034,-0.83476 -3.66957,-1.25214 -5.713608,-1.25214 -2.136686,0 -4.13411,0.41738 -5.992271,1.25214 -1.765035,0.742429 -3.344369,1.809117 -4.738003,3.200063 -1.300657,1.298616 -2.369,2.875412 -3.205029,4.730387 -0.743053,1.855062 -1.11458,3.8029 -1.11458,5.843514 z M 290.38281,49.947933 c -19.84542,-7.369204 -39.67195,-9.896035 -60.06211,-9.878307 -20.39016,0.01773 -40.80973,3.231262 -60.06211,9.878307 -19.25238,6.647045 -41.55296,9.991101 -60.06222,10.017319 -18.509263,0.02622 -34.613472,-2.003367 -50.167859,-6.539196 l -0.0093,156.898804 c 16.838789,4.83792 31.454534,6.67938 50.167859,6.67824 18.71333,-0.001 40.83436,-3.43569 60.06222,-10.01744 19.22786,-6.58175 39.83464,-10.15285 60.06211,-10.01744 20.22747,0.13541 41.83341,2.73286 60.06211,10.01745 z"
     style="font-style:normal;font-weight:normal;font-size:1222.56px;line-height:1.25;font-family:sans-serif;fill:#000000;fill-opacity:0.98795182;stroke:none;stroke-width:7.12925"
     id="path915"
     sodipodi:nodetypes="ccccccsccscccsccccccscccscccsscsccccccccccccscccscccccczzzcczzzcc" />
  <g
     id="g29028"
     transform="matrix(25.606712,0,0,26.116782,60.029994,53.429994)"
     inkscape:path-effect="#path-effect29030">
    <path
       width="9.0085745"
       height="6.0057163"
       fill="#ee1c25"
       id="path29012"
       x="0"
       y="0"
       style="stroke-width:1.00095"
       d="m 0,0 c 0.63065575,0.19929929 1.2944179,0.25023812 1.9558238,0.25041323 0.00114,3e-7 0.00229,4.5e-7 0.00343,4.5e-7 l 2e-7,-4e-8 c 0.7947222,2e-8 1.5915402,-0.12535375 2.3433608,-0.38293537 7.059e-4,-2.4185e-4 0.00141,-4.8382e-4 0.00212,-7.259e-4 l 4e-7,-7e-8 c 0.7515136,-0.25775364 1.5488971,-0.37808988 2.3433891,-0.37830043 6.963e-4,-1.9e-7 0.00139,-2.8e-7 0.00209,-2.8e-7 0.7979345,0 1.6058364,0.1129727 2.3583658,0.37830078 0.00169,2.00250263 0.00169,4.00440803 0,6.00571633 C 8.2564121,5.6065121 7.4501099,5.4943635 6.6522973,5.4941682 c -6.962e-4,-2e-7 -0.00139,-3e-7 -0.00209,-3e-7 -0.7943507,0 -1.5859036,0.1382867 -2.343344,0.377626 -1e-7,1e-7 -3e-7,1e-7 -4e-7,2e-7 -7.113e-4,2.247e-4 -0.00142,4.495e-4 -0.00213,6.745e-4 l -4e-7,10e-8 c -0.7576004,0.2396 -1.5475821,0.3960612 -2.3420514,0.3837156 -2e-7,0 -3e-7,0 -5e-7,0 -0.00114,-1.78e-5 -0.00228,-3.58e-5 -0.00343,-5.43e-5 l -5e-7,0 C 1.2980632,6.2448708 0.63012021,6.2063287 0,6.0057163 0.00407876,4.0051046 0.00407876,2.0031992 0,0 Z"
       sodipodi:type="rect" />
    <path
       width="9"
       height="4"
       fill="#0b4ea2"
       id="path29014"
       x="0"
       y="0"
       d="m 0,0 c 0.63065575,0.19929929 1.2944179,0.25023812 1.9558238,0.25041323 1e-7,0 1e-7,0 2e-7,0 0.00114,3e-7 0.00229,4.5e-7 0.00343,4.5e-7 l 2e-7,-4e-8 c 0.7947222,2e-8 1.5915402,-0.12535375 2.3433608,-0.38293537 2e-7,-5e-8 3e-7,-1e-7 4e-7,-1.5e-7 7.058e-4,-2.418e-4 0.00141,-4.8372e-4 0.00212,-7.2575e-4 l 4e-7,-7e-8 c 0.7515136,-0.25775364 1.5488971,-0.37808988 2.3433891,-0.37830043 6.963e-4,-1.9e-7 0.00139,-2.8e-7 0.00209,-2.8e-7 0.7950304,0 1.5999558,0.11215186 2.350147,0.37540983 0.00111,1.33374438 0.00148,2.66721398 0.00111,4.00040878 C 8.2498926,3.6019515 7.4457641,3.490198 6.6519269,3.4884269 c -6.873e-4,1.1e-5 -0.00137,2.21e-5 -0.00206,3.34e-5 -0.8147821,0.00645 -1.5981026,0.1353424 -2.3128199,0.3676586 -2e-7,1e-7 -3e-7,1e-7 -5e-7,1e-7 -9.548e-4,3.139e-4 -0.00191,6.277e-4 -0.00286,9.415e-4 -2e-7,1e-7 -4e-7,2e-7 -6e-7,2e-7 -0.8104691,0.2597403 -1.6056725,0.4091925 -2.3513043,0.3935946 -9.876e-4,-1.34e-5 -0.00198,-2.71e-5 -0.00296,-4.12e-5 -1e-7,0 -3e-7,0 -4e-7,0 C 1.287235,4.2371357 0.61432726,4.1946744 0.00272176,4.0008633 0.00362384,2.6678161 0.00271659,1.334195 0,0 Z"
       sodipodi:type="rect" />
    <path
       width="9"
       height="2"
       fill="#ffffff"
       id="path29016"
       x="0"
       y="0"
       d="m 0,0 c 0.63065575,0.19929929 1.2944179,0.25023812 1.9558238,0.25041323 1e-7,0 1e-7,0 2e-7,0 0.00114,3e-7 0.00229,4.5e-7 0.00343,4.5e-7 l 2e-7,-4e-8 c 0.7947222,2e-8 1.5915402,-0.12535375 2.3433608,-0.38293537 2e-7,-5e-8 3e-7,-1e-7 4e-7,-1.5e-7 7.058e-4,-2.418e-4 0.00141,-4.8372e-4 0.00212,-7.2575e-4 l 4e-7,-7e-8 c 0.7515136,-0.25775364 1.5488971,-0.37808988 2.3433891,-0.37830043 6.963e-4,-1.9e-7 0.00139,-2.8e-7 0.00209,-2.8e-7 0.7950304,0 1.5999558,0.11215186 2.350147,0.37540983 5.547e-4,0.66687218 9.249e-4,1.33367568 0.00111,2.00041048 C 8.2497673,1.6021563 7.4451101,1.4901308 6.6512309,1.4884268 c -6.874e-4,1.11e-5 -0.00137,2.23e-5 -0.00206,3.35e-5 -0.8148001,0.00651 -1.6000768,0.1294305 -2.3128785,0.3678978 -1e-7,0 -2e-7,1e-7 -4e-7,1e-7 -9.526e-4,3.195e-4 -0.00191,6.389e-4 -0.00286,9.582e-4 -2e-7,1e-7 -4e-7,1e-7 -6e-7,2e-7 C 3.5249652,2.1230249 2.7274895,2.262113 1.9817037,2.250637 c -9.88e-4,-7.5e-6 -0.00198,-1.53e-5 -0.00296,-2.33e-5 -1e-7,0 -2e-7,0 -4e-7,0 C 1.2860348,2.2408349 0.61452837,2.194245 0.00271788,2.0008621 0.00226425,1.3340515 0.00135829,0.66709751 0,0 Z"
       sodipodi:type="rect" />
    <g
       id="g29026">
      <path
         fill="#ffffff"
         d="M 3.1703193,4.7853441 C 2.7337005,4.6544338 2.2044226,4.3506073 1.984684,3.6953553 c -9.74e-4,-0.00317 -0.00194,-0.00635 -0.0029,-0.00954 -0.065498,-0.1763411 -0.1036112,-0.3732238 -0.103886,-0.5925694 -0.00127,-1.0166194 0.044593,-1.4783031 0.044593,-1.4783031 0.017099,2.36e-4 0.034209,4.451e-4 0.051329,6.29e-4 0.00102,5.7e-6 0.00204,1.13e-5 0.00306,1.66e-5 0.3886994,0.00444 0.7883808,-0.029116 1.1932372,-0.098735 0.3826073,-0.065792 0.7698365,-0.163795 1.1567865,-0.2923838 9.01e-4,-3.038e-4 0.0018,-6.077e-4 0.0027,-9.116e-4 0.035707,-0.012048 0.071579,-0.023797 0.1076104,-0.03525 0,0 0.052196,0.446451 0.053653,1.4636084 4.165e-4,0.2907429 -0.05767,0.5571493 -0.151507,0.8021093 -9.78e-4,0.00186 -0.00196,0.00372 -0.00294,0.00557 C 4.0635163,4.0881959 3.5552407,4.5322396 3.1703193,4.7853441 Z"
         id="path29018"
         inkscape:original-d="M 3.16255,4.635 C 2.62474,4.37595 1.85545,3.86177 1.85545,2.84467 1.85545,1.82756 1.90408,1.365 1.90408,1.365 h 1.25847 1.2585 c 0,0 0.04864,0.46256 0.04864,1.47967 0,1.0171 -0.76929,1.53128 -1.30714,1.79033 z" />
      <path
         fill="#ee1c25"
         d="M 3.1696257,4.6505675 C 2.6587431,4.497397 1.9929038,4.0708472 1.9916263,3.1082857 1.990388,2.1753219 2.0280634,1.7510039 2.0280634,1.7510039 2.3997425,1.7524253 2.781882,1.7187631 3.169443,1.6519519 3.5521415,1.5859789 3.9401263,1.4876835 4.3285459,1.3589283 c 9.14e-4,-3.078e-4 0.00183,-6.156e-4 0.00274,-9.236e-4 0.00377,-0.00127 0.00755,-0.00254 0.011322,-0.0038 0,0 0.048169,0.4086842 0.04951,1.3414363 2.287e-4,0.1590285 -0.018502,0.3105407 -0.051827,0.4548503 -9.788e-4,0.00299 -0.00197,0.00597 -0.00296,0.00896 -0.1915559,0.7154046 -0.7607272,1.2236351 -1.167698,1.4911194 -2.7e-6,5e-7 -5.4e-6,10e-7 -8.1e-6,1.5e-6 z"
         id="path29020"
         inkscape:original-d="M 3.16255,4.5 C 2.66915,4.26234 1.96338,3.79062 1.96338,2.85749 1.96338,1.924362 2.007992,1.5 2.007992,1.5 h 1.15456 1.15459 c 0,0 0.044626,0.424365 0.044626,1.35749 0,0.933128 -0.705776,1.40485 -1.19921,1.64251 z" />
      <path
         fill="#ffffff"
         d="m 3.2727074,2.7455897 c 0.1394587,-0.024311 0.3963005,-0.073337 0.6406407,-0.2195624 0,0 -0.00627,0.084671 -0.00622,0.1812973 4.25e-5,0.096651 0.00639,0.1778731 0.00639,0.1778731 -0.2109553,-0.010391 -0.4982257,0.049814 -0.640983,0.078825 -8.35e-5,0.1717061 -3.36e-5,0.3433848 1.496e-4,0.5150361 -0.071186,0.01363 -0.1420834,0.026157 -0.2126666,0.037546 -2.157e-4,-0.1716969 -2.849e-4,-0.3434322 -2.076e-4,-0.515206 -0.1425322,0.021073 -0.4215833,0.060334 -0.6194904,0.1409789 0,0 0.00594,-0.083475 0.00591,-0.1803212 -2.71e-5,-0.096818 -0.00602,-0.1795686 -0.00602,-0.1795686 0.2307465,0.064695 0.4804367,0.024923 0.619775,3.807e-4 1.266e-4,-0.1078979 3.108e-4,-0.2158109 5.529e-4,-0.3237391 -0.1215136,0.018284 -0.2982957,0.048883 -0.4924322,0.1314606 0,0 0.00607,-0.083647 0.00616,-0.1805308 8.98e-5,-0.096869 -0.00584,-0.1795309 -0.00584,-0.1795309 0.1953233,0.050123 0.3693962,0.03176 0.4921338,0.011224 -0.00567,-0.2038595 -0.064461,-0.4535576 -0.064461,-0.4535576 0,0 0.1230441,-0.00951 0.1728027,-0.01811 0.049285,-0.00851 0.1736924,-0.04173 0.1736924,-0.04173 0,0 -0.061376,0.2701925 -0.068279,0.4761826 0.1235134,-0.022302 0.3008079,-0.065082 0.5042975,-0.183838 0,0 -0.00627,0.084542 -0.00627,0.1811567 5.4e-6,0.096629 0.00631,0.1779491 0.00631,0.1779491 -0.2029827,-0.013752 -0.3831086,0.017917 -0.505415,0.042179 -2.286e-4,0.1078713 -4.046e-4,0.2157317 -5.28e-4,0.3235813 0,0 9e-7,2.38e-5 9e-7,2.38e-5 z"
         id="path29022"
         inkscape:original-d="M 3.26808,2.61284 C 3.401679,2.615 3.662335,2.62023 3.894432,2.542567 c 0,0 -0.00613,0.083055 -0.00613,0.179805 0,0.096773 0.00613,0.179822 0.00613,0.179822 -0.21289,-0.07125 -0.4758,-0.07273 -0.62635,-0.07082 V 3.346765 H 3.057049 V 2.831374 c -0.150545,-0.00191 -0.41345,-4.252e-4 -0.626352,0.070815 0,0 0.00613,-0.083049 0.00613,-0.179822 0,-0.09675 -0.00613,-0.179805 -0.00613,-0.179805 0.2321,0.077665 0.492753,0.072432 0.626352,0.070273 V 2.289159 c -0.121766,-0.00108 -0.297234,0.00473 -0.49563,0.071126 0,0 0.00613,-0.083055 0.00613,-0.179822 0,-0.096756 -0.00613,-0.179811 -0.00613,-0.179811 0.198103,0.066283 0.373356,0.072192 0.495088,0.071137 -0.00626,-0.20498 -0.06597,-0.46332 -0.06597,-0.46332 0,0 0.12289,0.00959 0.172016,0.00959 0.049178,0 0.172031,-0.00959 0.172031,-0.00959 0,0 -0.059695,0.258346 -0.065964,0.463301 0.121741,0.00106 0.296989,-0.00485 0.495086,-0.071137 0,0 -0.00613,0.083055 -0.00613,0.179811 0,0.096767 0.00613,0.179822 0.00613,0.179822 C 3.565318,2.293874 3.389843,2.288059 3.268079,2.28914 v 0.323676 z" />
      <path
         fill="#0b4ea2"
         d="m 3.1659947,3.4428983 c -0.249843,0.044096 -0.3808926,0.4012722 -0.3808926,0.4012722 0,0 -0.073767,-0.1517085 -0.2725851,-0.1366161 C 2.3784089,3.7177347 2.2810006,3.8428905 2.2190172,3.9573864 2.4642322,4.3570972 2.846902,4.5538295 3.1695714,4.6505771 3.4853947,4.4430027 3.8867469,4.1026758 4.1498841,3.6215721 4.0835445,3.5284312 3.9790636,3.4376654 3.8375627,3.4751081 3.6292329,3.5302346 3.5536071,3.7085555 3.5536071,3.7085555 c 0,0 -0.1364165,-0.3099916 -0.3876134,-0.2656571 3e-7,0 7e-7,-10e-8 1e-6,-10e-8 z"
         id="path29024"
         inkscape:original-d="m 3.1625,3.29094 c -0.24847,0 -0.381562,0.344688 -0.381562,0.344688 0,0 -0.073834,-0.163438 -0.276562,-0.163438 -0.137161,0 -0.238243,0.12201 -0.3025,0.235 0.24954,0.39705 0.64768,0.64207 0.96062,0.79281 0.31299,-0.15075 0.71139,-0.39571 0.96094,-0.79281 -0.064256,-0.11299 -0.165339,-0.235 -0.3025,-0.235 -0.202734,0 -0.276875,0.163438 -0.276875,0.163438 0,0 -0.133073,-0.344688 -0.381562,-0.344688 z" />
    </g>
  </g>
</svg>
