<?xml version="1.0" encoding="UTF-8" standalone="no"?>
<svg
   xmlns:dc="http://purl.org/dc/elements/1.1/"
   xmlns:cc="http://creativecommons.org/ns#"
   xmlns:rdf="http://www.w3.org/1999/02/22-rdf-syntax-ns#"
   xmlns:svg="http://www.w3.org/2000/svg"
   xmlns="http://www.w3.org/2000/svg"
   xmlns:sodipodi="http://sodipodi.sourceforge.net/DTD/sodipodi-0.dtd"
   xmlns:inkscape="http://www.inkscape.org/namespaces/inkscape"
   width="32cm"
   height="32cm"
   viewBox="0 0 319.99999 319.99996"
   version="1.1"
   inkscape:version="1.0.2 (e86c870879, 2021-01-15, custom)"
   id="svg991"
   sodipodi:docname="flag-template.svg">
  <metadata
     id="metadata995">
    <rdf:RDF>
      <cc:Work
         rdf:about="">
        <dc:format>image/svg+xml</dc:format>
        <dc:type
           rdf:resource="http://purl.org/dc/dcmitype/StillImage" />
        <dc:title></dc:title>
      </cc:Work>
    </rdf:RDF>
  </metadata>
  <defs
     id="defs993">
    <inkscape:path-effect
       effect="envelope"
       id="path-effect28309"
       is_visible="true"
       lpeversion="1"
       yy="true"
       xx="true"
       bendpath1="m 0,0 c 0.78907335,0.18625208 1.2337465,0.26310698 1.9592517,0.25041369 0.7255052,-0.0126933 1.6367142,-0.17070522 2.3454786,-0.38366132 0.7087644,-0.2129561 1.5470453,-0.39970895 2.3454785,-0.37830078 0.7984332,0.0214082 1.4833429,0.077432 2.3454786,0.37830078"
       bendpath2="M 9.0085745,0 V 6.0057163"
       bendpath3="m 0,6.0057163 c 0,0 1.2081466,0.2573058 1.9588612,0.2573058 0.7507145,0 1.6093765,-0.139718 2.3454785,-0.3832784 0.7361021,-0.2435604 1.594764,-0.4039229 2.3454786,-0.4039229 0.7507145,0 1.6733049,0.1245448 2.3454785,0.4039229"
       bendpath4="M 0,0 V 6.0057163"
       bendpath1-nodetypes="czzzc"
       bendpath3-nodetypes="czzzc" />
    <inkscape:path-effect
       effect="join_type"
       id="path-effect28307"
       is_visible="true"
       lpeversion="1"
       linecap_type="butt"
       line_width="1"
       linejoin_type="extrp_arc"
       miter_limit="100"
       attempt_force_join="true" />
    <inkscape:path-effect
       effect="lattice2"
       gridpoint0="0,0"
       gridpoint1="9.0085745,-0.12156933"
       gridpoint2="0,6.0057163"
       gridpoint3="9.0085745,6.0057163"
       gridpoint4="2.3348043,0.79020063"
       gridpoint5="6.9837475,-0.91176997"
       gridpoint6="2.5001256,6.8364401"
       gridpoint7="7.0250779,4.9318539"
       gridpoint8x9="4.6902736,-0.16209244"
       gridpoint10x11="4.731604,5.8638855"
       gridpoint12="0,1.5014291"
       gridpoint13="9.0085745,1.5014291"
       gridpoint14="0,4.5042872"
       gridpoint15="9.0085745,4.5042872"
       gridpoint16="2.3554694,2.190322"
       gridpoint17="6.9837475,0.60992067"
       gridpoint18="2.3967997,5.2944879"
       gridpoint19="7.0870734,3.5925173"
       gridpoint20x21="4.6489433,1.0556749"
       gridpoint22x23="4.6282782,4.3016717"
       gridpoint24x26="0,3.0028582"
       gridpoint25x27="9.0085745,3.0028582"
       gridpoint28x30="2.3761344,3.7322741"
       gridpoint29x31="7.0250778,2.010042"
       gridpoint32x33x34x35="4.6489433,2.6381502"
       id="path-effect28305"
       is_visible="true"
       lpeversion="1"
       horizontal_mirror="false"
       vertical_mirror="false"
       perimetral="false"
       live_update="true" />
    <inkscape:path-effect
       effect="envelope"
       id="path-effect139"
       is_visible="true"
       lpeversion="1"
       yy="true"
       xx="false"
       bendpath1="M 0.09302471,0.42181134 C 4.9244867,1.5220988 9.118853,1.919386 15.096091,1.9091998 c 7.84604,-0.013371 13.40874,-1.06234116 17.711117,-2.21010536 5.295236,-1.41263374 10.792426,-2.36014034 18.396961,-2.32671434 10.484227,0.04608 14.066199,1.1373959 17.806676,2.24736904"
       bendpath2="M 1000,0 V 600"
       bendpath3="m 0.39755868,30.34013 c 3.03843802,0.68521 7.83946592,1.534271 14.92475832,1.548091 8.619105,0.01681 13.279767,-1.151056 17.99248,-2.309213 4.712713,-1.158156 10.962349,-2.399588 19.200871,-2.282511 6.847031,0.0973 12.285723,0.984135 16.768204,2.307692"
       bendpath4="M 0,0 V 600"
       bendpath1-nodetypes="csssc"
       bendpath3-nodetypes="csssc" />
    <inkscape:path-effect
       effect="simplify"
       id="path-effect137"
       is_visible="true"
       lpeversion="1"
       steps="5"
       threshold="0.0005"
       smooth_angles="0"
       helper_size="5"
       simplify_individual_paths="true"
       simplify_just_coalesce="false" />
    <inkscape:path-effect
       effect="envelope"
       id="path-effect2610"
       is_visible="true"
       lpeversion="1"
       yy="false"
       xx="false"
       bendpath1="m -0.84808647,13.989298 c 0,0 70.99798147,27.980502 220.83282647,29.010702 C 333.84435,43.78285 405.05868,23.03285 474.72259,2.0871375 544.38651,-18.858575 612.5,-40 750,-40 c 160,0 250,40 250,40"
       bendpath2="M 1000,0 V 600"
       bendpath3="m 0,600 c 0,0 71.016438,23.99669 220.9439,24.67765 125.08003,0.56811 188.67927,-20.49764 257.07048,-41.55409 68.3912,-21.05645 141.57437,-42.10361 285.82226,-41.49833 C 908.51731,542.23232 1000,585.30019 1000,585.30019"
       bendpath4="M 0,0 V 600"
       bendpath1-nodetypes="csssc"
       bendpath3-nodetypes="csssc" />
    <inkscape:path-effect
       effect="simplify"
       id="path-effect2608"
       is_visible="true"
       lpeversion="1"
       steps="5"
       threshold="0.002"
       smooth_angles="0"
       helper_size="5"
       simplify_individual_paths="true"
       simplify_just_coalesce="false" />
    <inkscape:path-effect
       effect="envelope"
       id="path-effect2584"
       is_visible="false"
       lpeversion="1"
       yy="true"
       xx="false"
       bendpath1="m -0.84808647,13.989298 c 0,0 70.99798147,27.980502 220.83282647,29.010702 C 333.84435,43.78285 405.05868,23.03285 474.72259,2.0871375 544.38651,-18.858575 612.5,-40 750,-40 c 160,0 250,40 250,40"
       bendpath2="M 1000,0 V 600"
       bendpath3="m 0,600 c 0,0 71.016438,23.99669 220.9439,24.67765 125.08003,0.56811 188.67927,-20.49764 257.07048,-41.55409 68.3912,-21.05645 141.57437,-42.10361 285.82226,-41.49833 C 908.51731,542.23232 1000,585.30019 1000,585.30019"
       bendpath4="M 0,0 V 600"
       bendpath1-nodetypes="csssc"
       bendpath3-nodetypes="csssc" />
    <inkscape:path-effect
       effect="simplify"
       id="path-effect2582"
       is_visible="true"
       lpeversion="1"
       steps="5"
       threshold="0.002"
       smooth_angles="0"
       helper_size="5"
       simplify_individual_paths="true"
       simplify_just_coalesce="false" />
    <inkscape:path-effect
       effect="simplify"
       id="path-effect897"
       is_visible="true"
       lpeversion="1"
       steps="5"
       threshold="0.0005"
       smooth_angles="0"
       helper_size="5"
       simplify_individual_paths="true"
       simplify_just_coalesce="false" />
    <inkscape:path-effect
       effect="envelope"
       id="path-effect903"
       is_visible="false"
       lpeversion="1"
       yy="true"
       xx="false"
       bendpath1="M -0.02781534,15.226854 C 70.086687,35.23118 130.9556,42.454259 217.69768,42.269064 331.55993,42.025967 412.28621,22.954639 474.72259,2.0871375 551.56741,-23.595956 631.343,-40.82257 741.70051,-40.214854 c 152.14781,0.837847 204.12962,20.678993 258.41169,40.85941461"
       bendpath2="M 1000,0 V 600"
       bendpath3="M 0.31722306,596.96151 C 44.411229,609.41931 114.08407,624.8561 216.90631,625.10736 c 125.08103,0.30564 192.71686,-20.92735 261.10807,-41.9838 68.3912,-21.05645 159.08633,-43.62691 278.64432,-41.49833 99.36457,1.76906 178.29123,17.89254 243.3413,41.95613"
       bendpath4="M 0,0 V 600"
       bendpath1-nodetypes="csssc"
       bendpath3-nodetypes="csssc" />
    <clipPath
       id="a">
      <path
         d="M 0,0 V 30 H 60 V 0 Z"
         id="path24484" />
    </clipPath>
    <clipPath
       id="b">
      <path
         d="m 30,15 h 30 v 15 z m 0,0 V 30 H 0 Z m 0,0 H 0 V 0 Z m 0,0 V 0 h 30 z"
         id="path24487" />
    </clipPath>
  </defs>
  <sodipodi:namedview
     pagecolor="#ffffff"
     bordercolor="#666666"
     borderopacity="1.0"
     inkscape:pageopacity="0.0"
     inkscape:pageshadow="2"
     inkscape:zoom="0.25"
     inkscape:cx="599.83996"
     inkscape:cy="531.5699"
     inkscape:document-units="cm"
     inkscape:current-layer="svg991"
     inkscape:document-rotation="0"
     showgrid="true"
     units="cm"
     inkscape:window-width="1920"
     inkscape:window-height="1017"
     inkscape:window-x="-8"
     inkscape:window-y="-8"
     inkscape:window-maximized="1"
     inkscape:snap-global="false"
     id="namedview977">
    <inkscape:grid
       type="xygrid"
       empspacing="8"
       color="#ff3ff2"
       opacity="0.1254902"
       dotted="false"
       id="grid975"
       units="cm"
       spacingx="9.9999989"
       spacingy="9.9999989" />
  </sodipodi:namedview>
  <g
     id="g895"
     inkscape:path-effect="#path-effect897;#path-effect903"
     transform="matrix(0.23037891,0,0,0.24051932,-484.89488,-228.98215)">
    <path
       d="m 0,0 c 333.33333,0 666.66667,0 1000,0 0,200 0,400 0,600 C 666.66667,600 333.33333,600 0,600 0,400 0,200 0,0 Z"
       fill="#ff0000"
       id="path2"
       inkscape:original-d="M 0,0 H 1000 V 600 H 0 Z" />
    <path
       d="m 454.869,259.272 c -11.14827,-6.92493 -22.99855,-12.68839 -35.225,-17.443 -16.38697,23.94388 -21.02395,55.5096 -12.193,83.15 10.97196,-24.90194 27.28894,-47.40799 47.418,-65.707 z m -29.806,-24.556 c 13.22247,4.57635 25.95106,10.52172 38.104,17.443 5.20873,-1.51012 9.2565,-9.33725 1.45525,-10.04978 -10.8617,-5.48233 -22.19341,-10.02032 -33.80125,-13.65922 -2.00391,2.00754 -4.02262,4.01543 -5.758,6.266 z m 11.855,-12.023 c 15.07165,4.01385 29.74136,9.61349 43.522,16.934 3.42806,-1.01913 11.41754,-6.55865 4.21022,-8.35094 -12.9934,-6.13599 -26.67043,-10.76224 -40.62022,-14.17206 -2.51266,1.67219 -4.89316,3.54292 -7.112,5.589 z m 14.394,-10.161 c 16.68317,3.36863 32.96943,8.77899 48.265,16.257 15.32382,-7.4102 31.58862,-12.85484 48.264,-16.257 -29.01719,-17.38351 -67.50119,-17.31536 -96.529,0 z m 103.81,4.742 c -15.87479,3.71794 -31.31198,9.30039 -45.893,16.596 4.25575,3.3633 10.87763,7.10328 15.7617,2.81913 6.74603,-3.75954 14.16984,-6.40968 21.43395,-9.09862 5.20603,-1.83058 10.48186,-3.46212 15.81035,-4.89751 -2.19329,-2.02382 -4.55026,-3.88299 -7.113,-5.419 z m 13.21,11.346 c -14.10252,4.24461 -27.72073,10.05055 -40.644,17.104 3.58399,3.94108 10.34578,7.7607 14.88115,3.09818 8.93507,-5.34762 18.75811,-9.34758 28.52132,-13.04134 6.56891,-0.66558 -1.21207,-4.94191 -2.75847,-7.16084 z m 11.177,13.378 c -12.21614,4.58409 -23.9773,10.37961 -35.055,17.274 20.14561,18.29348 36.2671,40.90719 47.417,65.707 8.44693,-27.63364 4.16942,-59.13602 -12.362,-82.981 z m -8.298,66.385 c -9.90039,-16.00761 -21.99637,-30.66434 -35.902,-43.353 -5.62144,1.28626 -10.7142,9.43561 -3.40473,12.16144 20.7262,20.85658 36.97824,46.14853 47.26573,73.69756 3.10222,-5.3392 9.45007,-11.51539 4.98116,-17.97124 -3.92006,-8.37661 -8.11044,-16.6412 -12.94016,-24.53476 z m -53.684,-44.03 c 5.20234,-1.8007 11.28887,-8.66966 3.45278,-11.64486 -5.6306,-3.15606 -15.86596,5.69031 -6.90607,8.87156 1.27688,0.74101 2.58646,1.54113 3.45329,2.7733 z m -17.95,-13.549 c 4.98264,-1.49964 11.5677,-7.50388 3.56617,-10.22143 -4.55425,-3.36241 -16.36079,3.91937 -8.49874,7.36741 1.72373,0.79145 3.6328,1.38535 4.93257,2.85402 z m -9.145,6.605 c -4.10765,-3.9735 -10.99767,-7.65254 -15.4144,-2.134 -4.2922,4.71138 5.71905,10.08284 9.64425,6.67742 2.14821,-1.20627 3.9048,-2.9623 5.77015,-4.54342 z m 9.145,6.774 c -5.99014,1.84193 -10.04256,10.26505 -2.37989,12.89317 4.71654,2.3933 13.41502,-5.24082 7.86303,-9.06377 -1.80648,-1.3019 -4.06227,-2.03558 -5.48314,-3.8294 z m 0,31.668 c -22.15446,23.93806 -38.85294,52.92695 -48.265,84.166 26.71061,15.28755 60.86967,16.9573 88.77839,3.8522 7.11391,0.13757 8.68933,-9.71499 4.37975,-14.0535 -9.79901,-27.33032 -25.07352,-52.72628 -44.89314,-73.9647 z m -55.885,64.183 c 10.61047,-27.18351 26.7667,-52.19877 47.248,-72.99 -2.75336,-3.57716 -8.89512,-9.40036 -12.90811,-4.3502 -3.59836,4.73616 -8.12565,8.80911 -11.79398,13.54695 -16.16738,19.45607 -28.93549,41.76373 -37.27991,65.65525 3.3325,2.26833 6.7632,10.77039 11.29562,6.58715 1.42688,-2.67436 2.22946,-5.66708 3.43838,-8.44915 z m 64.521,-72.99 c 23.40632,23.76843 41.16331,53.01923 51.651,84.675 3.69099,-3.91047 11.96187,-7.27029 8.96642,-13.96277 C 557.6561,328.13149 539.74993,301.10834 517.019,279.086 c -2.95693,2.62855 -5.92359,5.24732 -8.806,7.958 z m -88.23,63.845 c 11.20249,-30.04327 29.62117,-57.34105 53.175,-79.085 -3.15699,-3.52392 -9.41748,-7.87432 -13.53313,-3.40117 -3.11629,4.37044 -7.43656,7.81434 -10.82124,12.02008 -15.10301,17.15614 -27.36736,36.81026 -36.10163,57.93409 2.02558,4.3962 4.59917,8.51219 7.281,12.532 z m 80.102,-159.187 c 44.16753,-0.61126 86.85246,29.18128 101.57549,70.82353 12.2342,32.98193 7.37132,71.98074 -13.63236,100.37328 -19.75113,27.5748 -52.88441,45.38989 -86.95983,45.25242 -32.96087,0.35282 -65.81843,-15.12276 -85.96794,-41.32069 -20.42367,-25.82786 -28.47422,-61.24212 -20.01349,-93.20012 8.16813,-32.60033 32.17326,-60.93886 63.42012,-73.58025 13.12239,-5.49634 27.33933,-8.44471 41.57801,-8.34817 z m 47.756,-23.709 c -4.01239,4.6152 -7.26424,9.86294 -9.822,15.41 -2.33027,-10.7074 3.92146,-20.524 8.88879,-29.46259 4.23537,-8.7225 3.70936,-19.80916 -1.79018,-27.82888 -0.50814,4.36233 -0.52466,10.93304 -3.09376,15.61403 -2.15698,5.74426 -7.1242,9.46477 -10.94078,13.97563 -5.41021,6.84148 -9.3996,14.77127 -11.86207,23.12981 -3.60105,-10.20552 0.66452,-20.78788 4.21772,-30.34853 2.82441,-9.27502 0.58114,-20.14422 -6.11302,-27.20041 0.17447,4.35873 1.21905,10.86304 -0.58174,15.87884 -1.21743,6.01051 -5.56398,10.43618 -8.65011,15.46286 -4.2945,7.5799 -6.94438,16.0484 -8.00885,24.68324 -4.84871,-8.688 -3.03001,-19.12004 -1.062,-28.35814 1.66118,-7.56345 0.2636,-15.65932 -4.17121,-22.0467 -1.2017,-1.90388 -5.18356,-7.15011 -5.72332,-5.26299 3.77226,9.41961 2.43824,20.48885 -3.13064,28.91025 -3.81242,8.88868 -5.45634,18.63465 -5.21883,28.28258 -6.69415,-8.85515 -5.83562,-20.54574 -5.24674,-30.99034 -0.44866,-9.8568 -6.4992,-19.11305 -15.07526,-23.87866 6.19393,9.20786 6.57316,21.44509 2.2432,31.4842 -2.18361,9.13564 -2.37729,18.74274 -0.5492,27.9568 -8.2349,-7.81442 -8.86625,-19.80493 -10.25477,-30.34807 -2.21028,-9.38387 -9.37904,-17.50778 -18.53423,-20.62593 7.52005,7.74563 9.88552,19.48266 7.17062,29.77138 -0.79249,9.62447 0.57373,19.40153 3.83638,28.48362 -9.3189,-6.12445 -11.81548,-17.69998 -14.63051,-27.72381 -3.50831,-9.24941 -12.07415,-16.33118 -21.77849,-18.16819 8.419,6.70974 12.8292,17.76519 11.8013,28.42138 0.7205,9.59449 3.4162,19.08319 8.1807,27.46262 -9.8729,-4.52964 -14.46611,-15.0925 -18.42563,-24.51615 -4.75418,-8.97087 -14.69598,-14.6615 -24.75737,-14.94185 9.22905,4.98382 15.50817,14.87802 15.92979,25.37017 2.11785,9.68808 6.48521,18.88171 12.68921,26.62083 -10.68911,-2.9721 -16.75845,-13.01814 -22.49293,-21.68319 -6.17534,-7.80716 -16.58566,-11.99804 -26.44807,-10.66281 10.42614,3.81097 18.071,13.42506 20.38582,24.15621 3.56242,8.70006 9.11715,16.55488 16.02418,22.92179 -11.6602,-1.52653 -19.30702,-11.35949 -26.9464,-19.24281 -7.25483,-5.89004 -17.46423,-7.79314 -26.3986,-5.14319 10.61328,1.99195 19.57909,9.92592 23.44917,19.91317 5.0427,8.22419 11.7427,15.47162 19.73483,20.89983 -11.04349,0.13535 -19.98371,-7.33654 -28.04704,-13.9536 -7.86983,-5.28818 -18.47396,-6.08923 -27.11019,-2.23096 5.82615,1.86316 12.20926,2.76459 16.95522,6.97893 5.50883,4.65524 8.59343,11.53228 14.35802,15.96308 4.94575,4.45349 10.54788,8.17374 16.56099,11.02455 -10.84558,1.92469 -20.76298,-4.14659 -29.80845,-9.23542 -8.5697,-3.98235 -19.2384,-3.47539 -27.13681,1.83732 6.00824,0.99526 12.43046,0.87194 17.7468,4.29229 6.14259,3.72402 10.25922,9.99056 16.59592,13.4851 5.54757,3.63774 11.63988,6.4578 18.03054,8.24871 -10.45559,3.92808 -21.25858,-0.97345 -31.07949,-4.45432 -9.05783,-2.46659 -19.37773,-0.19777 -26.31651,6.19928 6.43387,-0.13372 13.14099,-1.03965 19.18512,1.78405 6.31519,2.93077 11.28724,8.1821 17.94213,10.51279 5.95717,2.59565 12.29576,4.30592 18.74475,5.0942 -8.94786,5.09368 -19.6049,2.95296 -29.10337,0.91789 -8.20099,-1.60125 -16.90205,0.52637 -23.36768,5.84224 -1.81328,1.40717 -7.30746,6.65818 -2.06406,3.823 9.18964,-3.33871 19.73711,-1.81884 27.86744,3.48813 8.8642,3.78601 18.56937,5.49101 28.19167,5.23474 -8.8068,6.65304 -20.4358,5.90332 -30.82944,5.22986 -9.89843,0.45312 -19.18403,6.59273 -23.86956,15.26114 9.04958,-6.43396 21.34612,-6.73232 31.32004,-2.3661 9.14373,2.12247 18.73977,2.3295 27.95196,0.5031 -7.96045,8.42527 -20.22968,8.83894 -30.93512,10.44515 -9.14542,2.3296 -16.91031,9.44078 -20.03888,18.34385 8.05987,-7.61312 20.09492,-9.80279 30.64759,-7.11648 9.33627,0.66528 18.84231,-0.56832 27.60841,-3.89052 -5.86598,9.14901 -17.15354,11.54308 -26.86548,14.40761 -9.18188,3.08434 -16.54425,11.23635 -18.47543,20.72413 3.04755,-1.87791 8.08279,-7.33138 13.13016,-8.56824 5.57241,-2.50825 11.69815,-1.71716 17.575,-2.21836 8.67152,-1.00918 17.15881,-3.68065 24.79675,-7.91814 -4.83636,10.10108 -15.79711,14.52171 -25.35846,18.9044 -8.56884,4.85887 -14.03429,14.48426 -14.26954,24.2786 5.13407,-9.49396 15.46537,-15.5932 26.16557,-16.10937 9.42556,-2.17147 18.27273,-6.55 25.99343,-12.34063 -3.43595,10.57656 -13.32036,16.83529 -22.13688,22.59336 -7.3252,5.89623 -11.36552,15.66654 -10.22642,25.01429 3.681,-5.8621 7.38431,-12.19449 13.88013,-15.32728 6.73645,-2.99613 14.08233,-4.71576 20.16203,-9.09328 4.72731,-3.04786 9.06175,-6.70067 12.88514,-10.82509 -1.29628,10.80661 -10.08594,18.24083 -17.56313,25.19938 -6.7255,6.97107 -9.51729,17.64439 -6.86941,26.95517 1.73879,-3.59987 3.75416,-10.25445 7.6703,-13.7806 3.84271,-4.75607 9.66029,-6.84221 14.68201,-9.94932 7.2702,-4.8168 13.61,-11.04425 18.50723,-18.26363 0.42407,11.4987 -7.94177,20.39186 -14.39955,28.94514 -4.84283,8.20699 -5.42538,18.81359 -1.34945,27.44786 0.40669,-10.79123 6.8503,-20.84849 16.08278,-26.28263 7.36641,-6.24036 13.29973,-14.12053 17.44822,-22.82737 2.12779,10.99138 -4.14551,21.05058 -9.35043,30.17231 -4.05387,8.99359 -2.79859,19.9915 2.74543,28.08169 -1.38755,-10.68255 3.239,-21.74333 11.61106,-28.45708 6.37827,-7.23022 11.01815,-15.95079 13.62194,-25.22492 3.94929,10.36385 -0.71999,21.18182 -4.37045,30.88365 -2.6159,9.1016 -0.31512,19.53201 6.12612,26.52029 -0.1662,-6.34189 -1.01224,-12.92598 1.73737,-18.89878 3.12477,-6.87927 8.70675,-12.37971 11.20824,-19.60524 2.3093,-5.54872 3.87069,-11.41013 4.60472,-17.37592 5.33777,9.73892 2.54888,21.15872 0.37079,31.36119 -1.16131,9.82144 3.4514,19.96678 11.31421,25.87781 -4.8633,-9.96101 -3.36373,-22.15314 2.53316,-31.33135 3.57204,-8.65632 5.16155,-18.08371 4.91784,-27.43165 6.57639,8.58364 6.07126,19.99772 5.33118,30.20183 0.18724,10.13157 6.21849,19.9106 15.15982,24.66617 -6.25836,-9.18081 -6.67772,-21.47404 -2.22291,-31.48444 2.18718,-9.14441 2.09639,-18.72128 0.52991,-27.95656 8.45728,8.06572 8.92693,20.42592 10.3997,31.2484 2.40538,9.05861 9.57562,16.61878 18.3893,19.7256 -7.34897,-7.85275 -10.13733,-19.48683 -7.29755,-29.83294 0.83046,-9.59754 -0.5531,-19.33761 -3.71045,-28.42306 9.08217,6.30368 11.86545,17.64099 14.57405,27.69744 3.48155,9.26206 12.13397,16.26664 21.83595,18.02656 -8.61083,-6.48533 -13.09436,-17.64686 -11.81977,-28.28664 -0.64342,-9.67447 -3.5987,-19.1512 -8.33223,-27.59836 9.66157,4.64318 14.30764,14.93283 18.40585,24.20895 4.67007,9.12031 14.57437,15.1618 24.77715,15.41905 -9.68946,-5.35515 -15.56123,-16.06295 -16.2661,-26.93957 -2.26803,-9.07104 -6.37481,-17.70984 -12.1839,-25.05143 10.2963,2.78422 16.34347,12.33475 21.73086,20.78177 5.66303,8.08491 15.95559,12.56453 25.70309,11.4315 -2.77004,-2.27559 -9.52482,-5.38178 -12.25544,-9.82326 -4.10416,-4.54144 -5.1971,-10.63567 -7.50845,-16.06951 -3.64986,-7.89417 -8.84891,-15.05266 -15.13806,-21.0525 10.96785,1.48481 18.63893,10.31087 25.58032,18.09721 7.26981,6.72101 18.13714,8.96394 27.59368,6.28879 -10.88109,-2.10773 -19.83712,-10.48248 -23.76828,-20.68578 -4.87335,-8.04555 -11.68831,-14.81175 -19.41472,-20.12722 11.5986,-0.38319 20.5164,8.10418 29.23495,14.50322 8.12498,4.80757 18.62261,5.25666 27.15805,1.24578 -11.08284,-0.38652 -21.20457,-7.28436 -26.72179,-16.71541 -6.11668,-7.09052 -13.84217,-12.68804 -22.21921,-16.81559 11.0517,-2.20486 21.02414,4.39315 30.21841,9.4892 8.98097,3.8059 19.84857,2.65737 27.86659,-2.8842 -10.97916,1.50738 -22.08639,-3.71082 -28.99408,-12.14922 -7.13209,-6.11117 -15.64819,-10.56548 -24.68892,-13.08378 10.33973,-3.9256 21.16195,0.63422 30.82261,4.35567 9.11478,2.63485 19.57192,0.34575 26.57697,-6.106 -6.33527,0.14921 -12.9119,1.00127 -18.87716,-1.75093 -6.89328,-3.09471 -12.37066,-8.72225 -19.62094,-11.16533 -5.56671,-2.27082 -11.43001,-3.78208 -17.37648,-4.63941 9.71596,-5.28712 21.09849,-2.59321 31.26985,-0.38768 9.868,1.18623 20.01679,-3.39579 26.13915,-11.12732 -10.05714,4.63217 -22.21172,3.20529 -31.41458,-2.71876 -8.67931,-3.59913 -18.14594,-5.13743 -27.51942,-4.90224 8.62051,-6.5415 20.03903,-6.11806 30.26537,-5.31934 9.67562,-0.24193 19.21804,-5.67016 23.91924,-14.20703 -6.46704,2.46093 -13.15719,5.49932 -20.26313,4.19777 -6.9342,-1.43938 -13.56436,-4.40475 -20.76181,-4.47727 -5.87278,-0.37863 -11.78921,0.0523 -17.56267,1.17787 7.249,-8.12053 18.7541,-9.0215 28.87866,-10.11961 9.56492,-1.67164 18.29609,-8.63398 21.452,-17.86397 -3.79371,2.17333 -9.09032,6.07304 -14.37986,6.75774 -5.9044,1.65136 -11.83099,-0.17339 -17.71594,-0.61576 -8.71896,-0.3634 -17.49284,1.06885 -25.68486,4.0596 6.25156,-9.4017 17.91348,-12.08944 28.1161,-14.85746 8.88836,-3.53175 15.79058,-11.76223 17.57054,-21.17758 -5.94369,6.46237 -14.05532,11.4718 -23.0921,11.32883 -11.36273,-0.50223 -22.73123,2.69921 -32.58654,8.27921 4.48058,-9.93303 15.11383,-14.40454 24.45309,-18.55802 8.51677,-4.56361 14.47371,-13.86119 14.83491,-23.50928 -2.93808,3.0624 -6.84904,8.51602 -11.66103,10.75527 -5.10665,3.36914 -11.28558,3.54627 -17.02235,4.92623 -8.37594,2.325 -16.25442,6.35528 -23.13762,11.6528 2.99473,-10.72651 13.13259,-16.79051 21.86523,-22.49059 7.76125,-6.13381 11.75217,-16.51622 10.48077,-26.28141 -3.72801,10.07773 -12.83196,17.78259 -23.31886,19.97607 -8.9591,3.64476 -17.10443,9.24957 -23.75914,16.26393 1.7006,-11.28029 10.85141,-19.07778 18.81634,-26.30743 6.25773,-7.24129 8.26216,-17.73744 5.56966,-26.86657 -2.11104,10.5389 -9.89969,19.59463 -19.9415,23.36345 -8.27284,4.9404 -15.38937,11.78492 -20.7025,19.81955 -0.42789,-10.68393 6.77595,-19.38687 13.09541,-27.21659 5.84774,-7.88784 6.97594,-18.96318 2.94399,-27.87292 -1.32986,3.29588 -2.21804,10.83544 -5.65792,14.81508 -2.95682,5.04158 -8.04158,8.00636 -12.44973,11.54051 -2.08827,1.88701 -4.04594,3.91607 -5.89075,6.04092 z"
       fill="#ff0"
       id="path4"
       style="fill:#ffff00"
       inkscape:original-d="m 454.869,259.272 c -11.177,-6.943 -23.032,-12.701 -35.225,-17.443 -10.5,15.58 -16.596,34.208 -16.596,54.36 0,9.992 1.524,19.645 4.403,28.79 5.08,-11.685 11.516,-23.031 19.306,-33.87 a 188.215,188.215 0 0 1 28.112,-31.837 z m -29.806,-24.556 c 13.21,4.573 25.91,10.5 38.104,17.443 2.71,-2.37 5.588,-4.403 8.298,-6.435 -12.87,-7.113 -26.588,-12.87 -40.644,-17.274 -2.032,2.033 -4.064,4.065 -5.758,6.266 z m 11.855,-12.023 c 15.241,4.064 29.805,9.652 43.522,16.934 3.218,-2.032 6.436,-3.895 9.484,-5.757 C 475.36,226.418 459.949,221 444.03,217.104 a 57.437,57.437 0 0 0 -7.112,5.589 z m 14.394,-10.161 c 16.766,3.387 33.023,8.806 48.265,16.257 15.41,-7.451 31.668,-12.87 48.264,-16.257 -14.056,-8.298 -30.652,-13.04 -48.264,-13.04 -17.612,0 -34.04,4.742 -48.265,13.04 z m 103.81,4.742 a 209.349,209.349 0 0 0 -45.893,16.596 283.47,283.47 0 0 1 9.484,5.757 c 13.886,-7.282 28.45,-12.87 43.522,-16.934 -2.201,-2.033 -4.572,-3.895 -7.112,-5.42 z m 13.21,11.346 c -14.056,4.234 -27.604,9.991 -40.644,17.104 a 158.93,158.93 0 0 1 8.468,6.435 c 12.023,-6.943 24.725,-12.87 37.934,-17.443 -1.694,-2.201 -3.557,-4.233 -5.758,-6.096 z m 11.177,13.378 a 198.118,198.118 0 0 0 -35.055,17.274 c 10.33,9.314 19.644,19.983 28.112,31.837 a 204.81,204.81 0 0 1 19.305,33.87 c 2.71,-9.314 4.234,-18.798 4.234,-28.79 0,-20.152 -6.097,-38.78 -16.596,-54.19 z m -8.298,66.385 c -10.161,-16.427 -22.354,-30.991 -35.902,-43.353 -3.048,2.201 -6.266,4.403 -9.145,6.604 22.862,21.338 41.321,48.095 53.006,79.255 2.71,-4.064 5.25,-8.298 7.282,-12.532 -4.234,-10.16 -9.314,-20.152 -15.241,-29.974 z m -53.684,-44.03 c 3.049,-2.202 6.097,-4.404 9.315,-6.436 -2.71,-2.37 -5.589,-4.572 -8.468,-6.774 -3.217,2.032 -6.435,4.064 -9.653,6.266 h 0.17 c 2.879,2.202 5.758,4.572 8.636,6.943 z m -17.95,-13.549 c 3.217,-2.032 6.604,-4.064 9.652,-5.927 -3.217,-2.032 -6.435,-4.064 -9.652,-5.927 -3.218,1.863 -6.266,3.895 -9.484,5.927 3.218,1.863 6.266,3.895 9.484,5.927 z m -9.145,6.605 c -3.218,-2.202 -6.266,-4.234 -9.484,-6.266 l -8.636,6.605 c 3.217,2.201 6.265,4.233 9.314,6.435 a 173.309,173.309 0 0 1 8.806,-6.774 z m 9.145,6.774 c -2.88,2.201 -5.758,4.572 -8.806,7.113 3.048,2.37 5.927,4.91 8.806,7.45 2.879,-2.54 5.757,-5.08 8.806,-7.45 -2.88,-2.371 -5.758,-4.912 -8.806,-7.113 z m 0,31.668 a 213.913,213.913 0 0 0 -33.362,47.587 c -6.266,11.854 -11.177,24.217 -14.903,36.579 14.226,7.96 30.652,12.701 48.265,12.701 17.613,0 34.039,-4.742 48.264,-12.701 -3.726,-12.362 -8.637,-24.725 -14.903,-36.58 -9.145,-17.78 -20.322,-33.7 -33.361,-47.586 z m -55.885,64.183 c 11.007,-28.112 27.265,-52.667 47.248,-72.99 -2.88,-2.709 -5.758,-5.249 -8.806,-7.958 -23.2,22.523 -41.83,50.465 -53.176,82.81 a 94.433,94.433 0 0 0 10.33,9.823 c 1.356,-3.895 2.88,-7.79 4.404,-11.685 z m 64.521,-72.99 c 19.983,20.323 36.24,44.878 47.418,72.99 1.524,3.895 2.879,7.79 4.233,11.685 3.726,-3.048 7.282,-6.266 10.5,-9.822 -11.516,-32.346 -30.144,-60.288 -53.345,-82.811 -3.048,2.71 -5.927,5.25 -8.806,7.959 z m -88.23,63.845 c 11.685,-31.16 30.144,-57.748 53.175,-79.085 a 186.939,186.939 0 0 0 -9.314,-6.774 c -13.548,12.531 -25.74,27.095 -35.902,43.522 a 215.114,215.114 0 0 0 -15.24,29.805 c 2.031,4.403 4.571,8.468 7.281,12.532 z m 80.102,-159.187 c 59.61,0 108.213,48.603 108.213,108.213 0,59.61 -48.603,108.214 -108.213,108.214 -59.61,0 -108.214,-48.603 -108.214,-108.214 0,-59.61 48.603,-108.213 108.214,-108.213 z m 47.756,-23.709 c -3.048,3.557 -6.435,8.129 -9.822,15.41 -0.847,-1.862 -0.847,-4.063 -0.34,-6.434 0.848,-7.79 3.05,-12.532 7.114,-19.137 1.354,-2.37 2.71,-4.403 3.386,-6.943 2.54,-7.62 2.033,-17.781 -3.556,-25.74 0.847,8.975 -1.863,16.426 -4.91,20.998 -0.509,0.847 -1.017,1.355 -1.694,2.033 -3.218,3.217 -6.774,6.435 -11.347,13.886 -2.54,4.064 -5.08,8.975 -7.451,16.765 -1.016,-1.693 -1.355,-3.725 -1.185,-6.096 -0.34,-7.96 1.016,-12.87 3.895,-20.152 1.016,-2.54 2.032,-4.742 2.37,-7.452 1.186,-7.79 -0.846,-17.781 -7.62,-24.725 2.201,8.637 0.846,16.427 -1.524,21.508 -0.508,0.846 -0.847,1.524 -1.355,2.201 -2.71,3.726 -5.589,7.451 -9.145,15.41 -1.693,4.573 -3.556,9.823 -4.572,17.782 -1.355,-1.524 -2.033,-3.556 -2.202,-5.927 -1.524,-7.79 -1.016,-12.87 0.678,-20.49 0.677,-2.541 1.354,-4.912 1.185,-7.622 0,-7.959 -3.556,-17.442 -11.346,-23.37 3.556,8.298 3.387,16.258 1.862,21.677 -0.338,0.677 -0.677,1.524 -1.016,2.201 -2.032,4.234 -4.403,8.299 -6.604,16.766 -1.016,4.742 -2.032,10.33 -1.863,18.29 -1.355,-1.355 -2.37,-3.218 -3.048,-5.42 -2.71,-7.62 -3.049,-12.531 -2.371,-20.49 0.17,-2.71 0.339,-5.081 0,-7.621 -1.355,-7.96 -6.435,-16.766 -14.903,-21.338 4.742,7.62 5.758,15.58 5.08,20.999 l -0.507,2.54 c -1.355,4.403 -3.049,8.806 -3.895,17.612 -0.34,4.742 -0.508,10.33 1.016,18.29 -1.694,-1.186 -2.88,-2.879 -3.895,-4.911 -3.895,-7.113 -4.911,-12.024 -5.589,-19.814 -0.17,-2.71 -0.339,-5.08 -1.355,-7.62 -2.37,-7.621 -8.806,-15.58 -17.95,-18.629 5.927,6.605 8.298,14.225 8.298,19.814 0,0.847 0,1.693 -0.17,2.54 -0.677,4.572 -1.524,9.314 -1.016,17.951 0.508,4.742 1.186,10.33 3.895,17.95 -1.863,-0.846 -3.387,-2.37 -4.742,-4.233 -4.91,-6.266 -6.604,-11.007 -8.467,-18.628 -0.677,-2.71 -1.185,-4.911 -2.54,-7.451 -3.557,-6.944 -11.177,-13.887 -20.66,-15.58 6.773,5.757 10.33,13.04 11.346,18.458 0.169,0.847 0.169,1.694 0.169,2.54 0.17,4.573 0,9.315 1.863,17.952 1.185,4.572 2.71,9.991 6.604,16.934 -1.862,-0.508 -3.556,-1.693 -5.25,-3.387 -5.927,-5.419 -8.467,-9.822 -11.346,-17.104 -1.016,-2.54 -2.032,-4.741 -3.556,-6.943 -4.742,-6.266 -13.21,-11.854 -23.031,-12.024 7.79,4.573 12.362,11.008 14.225,16.258 l 0.508,2.54 c 0.847,4.572 1.355,9.314 4.572,17.443 1.863,4.403 4.403,9.483 9.314,15.75 -2.032,-0.17 -3.895,-1.186 -5.757,-2.541 -6.605,-4.403 -9.823,-8.467 -14.056,-15.072 -1.355,-2.37 -2.54,-4.403 -4.573,-6.266 -5.588,-5.588 -14.902,-9.822 -24.555,-8.467 8.298,3.387 13.886,9.144 16.596,14.056 0.339,0.677 0.677,1.524 1.016,2.37 1.524,4.234 2.71,8.807 7.113,16.427 2.54,4.065 5.758,8.637 11.685,14.225 -2.032,0 -4.065,-0.677 -6.097,-1.693 -7.282,-3.387 -11.007,-6.774 -16.088,-12.701 -1.863,-2.032 -3.387,-3.895 -5.588,-5.589 -6.436,-4.572 -16.258,-7.282 -25.572,-4.403 8.806,2.032 15.241,6.774 18.459,11.177 0.677,0.678 1.016,1.355 1.355,2.202 2.201,4.064 4.234,8.467 9.822,15.072 3.048,3.725 6.943,7.79 13.548,12.362 -1.863,0.339 -3.895,0 -6.266,-0.847 -7.62,-2.032 -11.854,-4.91 -17.782,-9.991 -2.032,-1.694 -3.895,-3.218 -6.265,-4.572 -7.113,-3.557 -17.274,-4.573 -26.08,-0.34 8.975,0.509 16.088,4.404 20.152,8.13 0.508,0.677 1.016,1.185 1.524,2.032 2.88,3.556 5.42,7.62 12.024,13.378 3.557,3.048 8.129,6.435 15.41,9.992 -1.862,0.677 -4.063,0.677 -6.265,0.17 -7.96,-0.848 -12.532,-3.05 -19.306,-7.114 -2.37,-1.354 -4.403,-2.71 -6.943,-3.387 -7.62,-2.54 -17.612,-2.032 -25.572,3.557 8.807,-0.847 16.427,1.863 21,4.91 0.677,0.509 1.354,1.017 1.862,1.694 3.387,3.218 6.605,6.774 13.887,11.347 4.064,2.54 9.145,5.25 16.765,7.451 -1.693,1.016 -3.725,1.355 -6.096,1.355 -7.96,0.17 -12.87,-1.186 -20.152,-4.065 -2.54,-1.016 -4.742,-2.032 -7.452,-2.37 -7.79,-1.186 -17.781,0.846 -24.725,7.62 8.637,-2.201 16.597,-0.847 21.508,1.524 0.846,0.508 1.524,0.847 2.201,1.355 3.726,2.71 7.451,5.589 15.58,9.145 4.403,1.693 9.653,3.556 17.612,4.572 -1.524,1.355 -3.556,2.032 -5.757,2.202 -7.96,1.693 -12.87,1.016 -20.66,-0.678 -2.541,-0.677 -4.912,-1.185 -7.622,-1.185 -7.959,0 -17.442,3.556 -23.2,11.346 8.128,-3.556 16.088,-3.387 21.507,-1.862 0.847,0.338 1.524,0.677 2.37,1.016 4.065,2.032 8.299,4.403 16.766,6.604 4.573,1.016 10.161,2.032 18.12,1.863 -1.354,1.355 -3.217,2.37 -5.419,3.048 -7.451,2.71 -12.531,3.049 -20.321,2.371 -2.71,-0.17 -5.08,-0.339 -7.79,0 -7.79,1.355 -16.597,6.435 -21.169,15.072 7.451,-4.911 15.41,-5.927 21,-5.25 0.846,0.17 1.523,0.339 2.37,0.508 4.403,1.525 8.806,3.049 17.612,3.895 4.742,0.34 10.33,0.508 18.29,-1.016 -1.186,1.694 -2.879,2.88 -4.911,3.895 -6.943,3.895 -12.024,4.911 -19.814,5.589 -2.71,0.338 -5.08,0.508 -7.62,1.355 -7.621,2.37 -15.411,8.806 -18.629,17.95 6.774,-5.927 14.395,-8.128 19.983,-8.298 0.847,0 1.694,0 2.54,0.17 4.403,0.677 9.145,1.524 17.951,1.016 4.742,-0.339 10.33,-1.186 17.782,-3.895 -0.678,1.863 -2.202,3.387 -4.234,4.742 -6.266,4.91 -11.007,6.604 -18.628,8.467 -2.54,0.677 -4.911,1.185 -7.282,2.54 -7.113,3.557 -13.887,11.177 -15.58,20.66 5.588,-6.773 12.87,-10.33 18.29,-11.346 0.846,-0.169 1.693,-0.169 2.54,-0.169 4.572,-0.17 9.483,0 17.95,-1.863 4.573,-1.185 9.992,-2.71 17.105,-6.604 -0.508,1.862 -1.863,3.725 -3.557,5.25 -5.419,5.927 -9.822,8.467 -17.104,11.346 -2.37,1.185 -4.572,2.032 -6.774,3.556 -6.435,4.742 -12.023,13.21 -12.193,23.031 4.573,-7.79 11.177,-12.362 16.427,-14.225 0.847,-0.17 1.524,-0.339 2.37,-0.508 4.573,-0.847 9.315,-1.355 17.444,-4.572 4.403,-1.863 9.483,-4.403 15.918,-9.145 -0.338,1.863 -1.185,3.726 -2.71,5.588 -4.402,6.605 -8.297,9.823 -15.071,14.056 -2.202,1.355 -4.234,2.54 -6.266,4.573 -5.588,5.588 -9.653,14.902 -8.298,24.555 3.218,-8.298 8.975,-13.886 13.887,-16.596 0.846,-0.339 1.524,-0.677 2.37,-1.016 4.403,-1.355 8.976,-2.71 16.427,-7.113 4.065,-2.54 8.637,-5.758 14.225,-11.685 0.17,2.032 -0.508,4.065 -1.693,6.097 -3.387,7.282 -6.774,11.007 -12.701,16.088 -2.032,1.863 -3.895,3.387 -5.42,5.588 -4.572,6.436 -7.281,16.258 -4.402,25.572 1.862,-8.806 6.604,-15.241 11.177,-18.459 0.677,-0.508 1.354,-1.016 2.032,-1.355 4.064,-2.201 8.467,-4.234 15.241,-9.822 3.556,-3.048 7.62,-6.943 12.193,-13.548 0.339,1.863 0,4.064 -0.677,6.266 -2.202,7.62 -4.911,11.854 -10.161,17.782 -1.694,2.032 -3.218,3.895 -4.403,6.435 -3.556,7.112 -4.742,17.104 -0.508,25.91 0.677,-8.975 4.403,-16.088 8.298,-19.983 0.508,-0.677 1.185,-1.185 1.863,-1.694 3.725,-2.878 7.62,-5.419 13.378,-12.023 3.048,-3.557 6.435,-8.129 9.992,-15.41 0.677,1.862 0.677,4.063 0.338,6.265 -1.016,7.96 -3.048,12.532 -7.112,19.306 -1.524,2.37 -2.71,4.403 -3.557,6.943 -2.37,7.62 -1.862,17.781 3.726,25.74 -0.847,-8.975 1.694,-16.595 4.911,-21.168 0.508,-0.677 1.016,-1.354 1.524,-1.862 3.218,-3.387 6.774,-6.605 11.516,-13.887 2.37,-4.064 5.08,-9.145 7.282,-16.765 1.016,1.693 1.355,3.725 1.355,6.096 0.338,7.96 -1.016,12.87 -4.065,20.152 -1.016,2.54 -1.862,4.742 -2.37,7.452 -1.186,7.79 0.846,17.781 7.62,24.725 -2.201,-8.637 -0.847,-16.597 1.694,-21.508 0.338,-0.846 0.677,-1.524 1.185,-2.201 2.71,-3.726 5.758,-7.451 9.145,-15.58 1.863,-4.403 3.726,-9.653 4.742,-17.612 1.185,1.524 1.862,3.556 2.201,5.757 1.524,7.96 1.016,12.87 -0.847,20.66 -0.677,2.541 -1.185,4.912 -1.185,7.622 0,7.959 3.726,17.442 11.516,23.2 -3.557,-8.128 -3.557,-16.088 -1.863,-21.507 0.17,-0.847 0.508,-1.524 0.847,-2.37 2.032,-4.065 4.403,-8.299 6.604,-16.766 1.016,-4.573 2.032,-10.161 1.863,-18.12 1.524,1.354 2.37,3.217 3.048,5.419 2.88,7.451 3.049,12.531 2.54,20.49 -0.338,2.541 -0.508,4.912 0,7.621 1.186,7.96 6.266,16.766 14.903,21.338 -4.742,-7.62 -5.927,-15.58 -5.08,-20.999 0,-0.847 0.169,-1.693 0.508,-2.54 1.354,-4.403 3.048,-8.806 3.895,-17.612 0.169,-4.742 0.338,-10.33 -1.016,-18.29 1.524,1.186 2.879,2.879 3.895,4.911 3.895,6.943 4.91,12.024 5.588,19.814 0.17,2.71 0.339,5.08 1.186,7.62 2.54,7.621 8.806,15.411 18.12,18.629 -5.927,-6.774 -8.298,-14.395 -8.468,-19.983 0,-0.847 0,-1.694 0.17,-2.54 0.677,-4.403 1.693,-9.145 1.016,-17.951 -0.339,-4.742 -1.186,-10.33 -3.726,-17.782 1.694,0.847 3.218,2.202 4.573,4.234 4.91,6.266 6.773,11.007 8.636,18.628 0.508,2.54 1.186,4.911 2.371,7.282 3.726,7.113 11.177,13.887 20.83,15.58 -6.943,-5.588 -10.5,-12.87 -11.516,-18.29 -0.169,-0.846 -0.169,-1.693 -0.169,-2.54 0,-4.572 0.17,-9.314 -1.694,-17.95 -1.185,-4.573 -2.878,-9.992 -6.773,-17.105 2.032,0.508 3.725,1.863 5.25,3.557 5.927,5.419 8.467,9.822 11.515,17.104 1.016,2.37 1.863,4.572 3.556,6.774 4.742,6.435 13.21,12.023 22.862,12.193 -7.62,-4.573 -12.193,-11.177 -14.056,-16.427 -0.338,-0.847 -0.508,-1.524 -0.677,-2.37 -0.677,-4.573 -1.355,-9.315 -4.572,-17.444 -1.863,-4.403 -4.234,-9.483 -9.145,-15.75 2.032,0.17 3.895,1.017 5.758,2.541 6.604,4.403 9.822,8.298 13.886,15.072 1.355,2.202 2.71,4.403 4.573,6.266 5.588,5.588 14.902,9.653 24.555,8.298 -8.298,-3.218 -13.886,-8.975 -16.427,-13.887 -0.508,-0.846 -0.846,-1.524 -1.016,-2.37 -1.524,-4.403 -2.879,-8.976 -7.282,-16.427 -2.54,-4.065 -5.758,-8.637 -11.515,-14.225 1.862,0 3.895,0.508 6.096,1.693 7.113,3.387 11.008,6.774 16.088,12.701 1.694,2.032 3.218,3.895 5.42,5.42 6.435,4.741 16.257,7.281 25.57,4.572 -8.636,-2.032 -15.071,-6.774 -18.458,-11.347 -0.508,-0.677 -1.016,-1.354 -1.355,-2.032 -2.201,-4.064 -4.064,-8.467 -9.653,-15.241 -3.217,-3.556 -7.112,-7.62 -13.717,-12.193 2.032,-0.339 4.064,0 6.266,0.677 7.62,2.202 11.854,5.08 17.95,10.161 2.033,1.694 3.896,3.218 6.267,4.403 7.112,3.556 17.104,4.742 25.91,0.508 -8.975,-0.677 -15.919,-4.403 -19.983,-8.298 -0.677,-0.508 -1.185,-1.185 -1.694,-1.863 -2.71,-3.725 -5.419,-7.62 -11.854,-13.378 -3.726,-3.048 -8.298,-6.435 -15.41,-9.992 1.862,-0.677 3.894,-0.677 6.265,-0.338 7.79,1.016 12.532,3.048 19.137,7.282 2.37,1.354 4.403,2.54 6.943,3.387 7.62,2.37 17.781,1.862 25.74,-3.726 -8.975,0.847 -16.426,-1.694 -20.998,-4.911 l -2.033,-1.524 c -3.217,-3.218 -6.435,-6.774 -13.886,-11.516 -4.064,-2.37 -8.976,-5.08 -16.766,-7.282 1.694,-1.016 3.895,-1.355 6.097,-1.355 8.129,-0.338 13.04,1.016 20.152,4.065 2.54,1.016 4.742,1.862 7.452,2.37 7.79,1.186 17.781,-0.846 24.725,-7.62 -8.637,2.201 -16.427,0.847 -21.508,-1.694 -0.677,-0.338 -1.524,-0.677 -2.201,-1.185 -3.726,-2.71 -7.451,-5.589 -15.41,-9.145 -4.404,-1.693 -9.823,-3.556 -17.782,-4.742 1.524,-1.185 3.556,-1.862 5.927,-2.201 7.79,-1.524 12.87,-1.016 20.49,0.847 2.541,0.677 4.912,1.185 7.622,1.185 7.959,0 17.442,-3.726 23.37,-11.346 -8.298,3.387 -16.258,3.387 -21.508,1.693 -0.846,-0.17 -1.693,-0.508 -2.37,-0.847 -4.234,-2.032 -8.299,-4.403 -16.766,-6.604 -4.742,-1.016 -10.16,-2.032 -18.29,-1.863 1.355,-1.524 3.218,-2.37 5.42,-3.048 7.62,-2.88 12.7,-3.049 20.49,-2.54 2.71,0.338 5.081,0.508 7.79,0 7.79,-1.186 16.597,-6.266 21.17,-14.903 -7.621,4.742 -15.411,5.927 -21,5.25 -0.847,-0.17 -1.693,-0.339 -2.54,-0.678 -4.403,-1.354 -8.806,-3.048 -17.443,-3.895 -4.742,-0.17 -10.5,-0.338 -18.29,1.186 1.017,-1.694 2.71,-3.049 4.912,-4.065 6.943,-3.895 11.854,-4.91 19.644,-5.588 2.71,-0.17 5.08,-0.339 7.62,-1.186 7.621,-2.54 15.58,-8.806 18.629,-18.12 -6.605,5.927 -14.225,8.298 -19.814,8.468 -0.847,0 -1.693,0 -2.54,-0.17 -4.573,-0.677 -9.314,-1.693 -17.951,-1.016 -4.742,0.339 -10.33,1.186 -17.95,3.895 0.846,-1.863 2.37,-3.387 4.233,-4.742 6.266,-4.91 11.007,-6.773 18.628,-8.636 2.71,-0.508 4.911,-1.186 7.451,-2.371 6.944,-3.726 13.887,-11.177 15.58,-20.83 -5.757,6.943 -12.87,10.5 -18.459,11.516 -0.846,0.169 -1.693,0.169 -2.54,0.169 -4.572,0 -9.314,-0.17 -17.781,1.694 -4.742,1.185 -10.161,2.878 -17.104,6.773 0.508,-2.032 1.693,-3.725 3.387,-5.25 5.419,-5.927 9.822,-8.467 17.104,-11.515 2.54,-1.016 4.741,-1.863 6.943,-3.556 6.266,-4.742 11.854,-13.21 12.024,-22.862 -4.573,7.62 -11.008,12.193 -16.258,14.056 -0.846,0.338 -1.693,0.508 -2.54,0.677 -4.572,0.847 -9.314,1.355 -17.443,4.572 -4.234,1.863 -9.314,4.234 -15.75,9.145 0.17,-1.863 1.186,-3.895 2.541,-5.758 4.403,-6.604 8.467,-9.822 15.072,-13.886 2.37,-1.355 4.403,-2.71 6.266,-4.573 5.588,-5.588 9.822,-14.902 8.467,-24.555 -3.387,8.298 -9.144,13.886 -14.056,16.596 -0.677,0.339 -1.524,0.677 -2.201,0.847 -4.403,1.524 -8.976,2.879 -16.596,7.282 -4.065,2.54 -8.637,5.758 -14.225,11.515 0,-1.862 0.677,-3.895 1.693,-5.927 3.387,-7.282 6.774,-11.007 12.701,-16.257 2.032,-1.694 3.895,-3.218 5.589,-5.42 4.572,-6.435 7.282,-16.257 4.403,-25.57 -2.033,8.636 -6.774,15.071 -11.177,18.458 -0.678,0.508 -1.355,1.016 -2.202,1.355 -4.064,2.201 -8.467,4.064 -15.072,9.653 -3.725,3.217 -7.79,7.112 -12.193,13.717 -0.508,-1.863 -0.17,-4.064 0.678,-6.266 2.201,-7.62 4.91,-11.854 9.991,-17.95 1.694,-2.033 3.387,-3.727 4.572,-6.267 3.557,-7.112 4.573,-17.104 0.34,-25.91 -0.509,8.975 -4.235,15.919 -8.13,19.983 -0.677,0.677 -1.185,1.185 -1.862,1.694 -3.726,2.71 -7.79,5.419 -13.548,12.023 z" />
  </g>
  <path
     style="font-style:normal;font-weight:normal;font-size:1222.56px;line-height:1.25;font-family:sans-serif;fill:#ffffff;fill-opacity:1;stroke:none;stroke-width:7.12925"
     d="m 30.067114,35.060948 q 0,4.869536 2.787015,8.76521 2.787015,3.756418 7.246467,5.286928 V 299.96567 h 9.894283 V 49.113086 q 4.459375,-1.530468 7.246465,-5.286928 2.787016,-3.895662 2.787016,-8.76521 0,-3.060948 -1.254422,-5.704406 -1.114579,-2.782551 -3.205029,-4.869495 -1.950987,-2.086812 -4.73804,-3.200063 -2.647551,-1.25214 -5.713608,-1.25214 -3.205029,0 -5.992271,1.25214 -2.647552,1.113644 -4.738003,3.200063 -1.950986,1.947924 -3.205029,4.730387 -1.11458,2.782593 -1.11458,5.843514 z"
     id="path934" />
  <g
     id="g27342"
     transform="matrix(25.606712,0,0,26.116782,60.029994,53.429994)"
     inkscape:path-effect="#path-effect28309">
    <path
       width="9.0085745"
       height="6.0057163"
       fill="#ee1c25"
       id="rect27310"
       x="0"
       y="0"
       style="stroke-width:1.00095"
       sodipodi:type="rect"
       d="m 0,0 c 0.02090012,0.00245069 0.04180044,0.00494806 0.06270702,0.00748811 0.05070051,0.00615987 0.10137763,0.01256341 0.15212543,0.0191529 0,0 4.5e-7,6e-8 4.5e-7,6e-8 0.16648022,0.02161708 0.32940592,0.04465642 0.49661636,0.067585 0,0 2.2e-7,3e-8 2.2e-7,3e-8 0.41138602,0.05641092 0.82371642,0.10866042 1.24069792,0.1159378 0,0 2e-7,1e-8 2e-7,1e-8 0,0 0,0 0,0 -2.2e-6,-4e-8 0.00623,1.0539e-4 0.00623,1.0535e-4 0.8176412,0.0133891 1.5555783,-0.10544361 2.3407902,-0.34170894 0,0 0,0 0,0 0,0 2e-7,-7e-8 2e-7,-7e-8 0,0 3e-7,-6e-8 3e-7,-6e-8 1.4e-6,-4.3e-7 0.00556,-0.001675 0.00556,-0.001675 1e-7,-4e-8 2e-7,-5e-8 3e-7,-7e-8 0.7890401,-0.23790153 1.5194567,-0.38329379 2.3416579,-0.32043708 10e-8,1e-8 0.00441,3.3941e-4 0.00441,3.3942e-4 10e-8,6e-8 3e-7,4e-8 4e-7,3e-8 0.9181798,0.0709997 1.4624443,0.20849845 2.3513292,0.38658891 C 9.013077,0.30110746 9.0084328,5.7478122 9.0019356,5.94273 8.1363394,5.7442564 7.5605814,5.5868363 6.6543767,5.5362496 c -2e-7,0 -0.00442,-2.455e-4 -0.00442,-2.455e-4 -0.8185738,-0.045276 -1.5609801,0.084051 -2.3401053,0.3420423 0,0 -4e-7,2e-7 -4e-7,2e-7 -1.7e-6,5e-7 -0.00552,0.00183 -0.00552,0.00183 -1e-7,1e-7 -3e-7,1e-7 -4e-7,1e-7 -0.7775721,0.2580179 -1.5238905,0.3673501 -2.3410398,0.3418943 -1.1e-6,-1e-7 -0.00624,-1.969e-4 -0.00624,-1.969e-4 -1e-7,-1e-7 -3e-7,-1e-7 -4e-7,-1e-7 -0.4061162,-0.012983 -0.8420793,-0.079402 -1.24286267,-0.1310487 -1.5e-7,-1e-7 -3e-7,-1e-7 -4.5e-7,-1e-7 -0.1659825,-0.021389 -0.33263616,-0.042322 -0.49810603,-0.061185 -1.5e-7,0 -3e-7,0 -4.5e-7,0 C 0.16524605,6.0235446 0.11418972,6.0179058 0.06339543,6.0124744 0.01892514,6.0077663 0.04480451,6.0104954 3.3421981e-4,6.0057873 1.0903366e-4,5.9913798 -2.2044027e-4,0.01431284 0,0 Z" />
    <path
       width="9"
       height="4"
       fill="#0b4ea2"
       id="rect27312"
       x="0"
       y="0"
       sodipodi:type="rect"
       d="m 0,0 c 0.02090012,0.00245069 0.04180044,0.00494806 0.06270702,0.00748811 0.05070051,0.00615987 0.10137763,0.01256341 0.15212543,0.0191529 0,0 4.5e-7,5e-8 4.5e-7,5e-8 0.16648022,0.02161709 0.32940592,0.04465643 0.49661636,0.06758501 0,0 2.2e-7,3e-8 2.2e-7,3e-8 0.41138612,0.05641094 0.82371662,0.10866044 1.24069812,0.11593781 -2.2e-6,-4e-8 0.00623,1.0539e-4 0.00623,1.0535e-4 0.8176412,0.0133891 1.5555783,-0.10544361 2.3407902,-0.34170894 1.4e-6,-4.3e-7 0.00556,-0.001675 0.00556,-0.001675 2e-7,-9e-8 3e-7,-1.1e-7 5e-7,-1.4e-7 0.7890401,-0.23790153 1.5194567,-0.38329379 2.3416579,-0.32043708 10e-8,1e-8 0.00441,3.3944e-4 0.00441,3.3945e-4 0.9129118,0.0705923 1.4590808,0.20744278 2.3429115,0.38490059 0.041635,1.40824834 0.00228,2.74482954 0.00967,4.06237004 -0.7713452,-0.036144 -1.563049,-0.1830992 -2.3646135,-0.2253364 0,0 -2e-7,0 -2e-7,0 5e-7,0 -0.00414,-2.408e-4 -0.00414,-2.408e-4 -0.8137401,-0.050197 -1.5119572,0.017061 -2.3476929,0.16569 0,0 -5e-7,10e-8 -5e-7,10e-8 -8e-6,1.6e-6 -0.00644,0.00129 -0.00645,0.00129 0,0 -5e-7,10e-8 -5e-7,10e-8 -0.7894771,0.1355843 -1.4858901,0.1877736 -2.3142354,0.165141 -2.9e-6,-1e-7 -0.00636,-2.069e-4 -0.00636,-2.07e-4 0,0 -5e-7,0 -5e-7,0 -0.4058794,-0.011995 -0.8287025,-0.049077 -1.24811416,-0.073359 0,0 -4.6e-7,0 -4.6e-7,0 -0.1678896,-0.00991 -0.33408068,-0.018144 -0.49927085,-0.023071 0,0 -4.4e-7,0 -4.4e-7,0 C 0.161671,4.0024283 0.1109286,4.001217 0.0603447,4.0003704 0.03936168,4.000023 0.01871163,3.99973 -0.00224469,3.9995072 0.00299803,2.6673249 -0.02046625,1.3288415 0,0 Z" />
    <path
       width="9"
       height="2"
       fill="#ffffff"
       id="rect27314"
       x="0"
       y="0"
       sodipodi:type="rect"
       d="m 0,0 c 0.02090012,0.00245069 0.04180044,0.00494806 0.06270702,0.00748811 0.05070051,0.00615987 0.10137763,0.01256341 0.15212543,0.0191529 0,0 4.5e-7,5e-8 4.5e-7,5e-8 0.16648022,0.02161709 0.32940592,0.04465643 0.49661636,0.06758501 0,0 2.2e-7,3e-8 2.2e-7,3e-8 0.41138612,0.05641094 0.82371662,0.10866044 1.24069812,0.11593781 -2.2e-6,-4e-8 0.00623,1.0539e-4 0.00623,1.0535e-4 0.8176412,0.0133891 1.5555783,-0.10544361 2.3407902,-0.34170894 1.4e-6,-4.3e-7 0.00556,-0.001675 0.00556,-0.001675 2e-7,-9e-8 3e-7,-1.1e-7 5e-7,-1.4e-7 0.7890401,-0.23790153 1.5194567,-0.38329379 2.3416579,-0.32043708 10e-8,1e-8 0.00441,3.3944e-4 0.00441,3.3945e-4 0.9129118,0.0705923 1.4590808,0.20744278 2.3429115,0.38490059 C 9.0134085,0.59785487 9.006927,1.3564424 9.0034231,1.993859 8.2317774,1.9579446 7.4396902,1.8158963 6.6381783,1.7710883 c 0,0 -2e-7,0 -2e-7,0 6e-7,0 -0.00414,-2.551e-4 -0.00414,-2.551e-4 -0.8160086,-0.053015 -1.5089719,0.017093 -2.348037,0.1622466 0,0 -6e-7,1e-7 -6e-7,1e-7 1.36e-5,-2.6e-6 -0.00647,0.00126 -0.00646,0.00126 0,1e-7 -5e-7,1e-7 -5e-7,1e-7 -0.7912375,0.131664 -1.4852924,0.1860973 -2.3140524,0.1655138 -3.2e-6,-1e-7 -0.00635,-1.917e-4 -0.00636,-1.917e-4 0,0 -5e-7,-10e-8 -5e-7,-10e-8 -0.3959565,-0.010717 -0.8376065,-0.047189 -1.24764281,-0.071563 0,0 -4.6e-7,0 -4.6e-7,0 -0.16798781,-0.010179 -0.33377887,-0.018756 -0.49907646,-0.023923 0,0 -4.4e-7,0 -4.4e-7,0 -0.0508326,-0.00161 -0.10152632,-0.00288 -0.15211545,-0.00377 C 0.03937244,2.0000409 0.01861563,1.9997351 -0.00227965,1.9994996 -0.00477594,1.3715324 -0.00963069,0.62530561 0,0 Z" />
    <g
       id="g27324">
      <path
         fill="#ffffff"
         d="M 3.1768233,4.7244375 C 2.7555736,4.5525583 2.1959307,4.1873531 1.9654294,3.5269772 1.9632745,3.5209519 1.9611501,3.5149047 1.9590566,3.5088356 1.9011919,3.3336708 1.8674577,3.140331 1.8674542,2.9279481 1.8674378,1.9212994 1.916219,1.4866325 1.916219,1.4866325 c 0.014381,4.313e-4 0.028745,8.275e-4 0.043091,0.00119 -2.9e-6,-10e-8 0.00636,1.788e-4 0.00636,1.787e-4 0.4111562,0.00937 0.8043234,-0.00225 1.2084981,-0.039769 0.3784146,-0.035132 0.7400334,-0.090527 1.1068474,-0.1618156 5.7e-6,-1.2e-6 0.00638,-0.00139 0.00638,-0.00139 0.039546,-0.00788 0.079074,-0.015636 0.1186101,-0.023259 0,0 0.048176,0.4718356 0.04854,1.4975221 1.036e-4,0.2929272 -0.063977,0.5505671 -0.1681543,0.7810124 -0.00214,0.00433 -0.00429,0.00864 -0.00646,0.012951 C 4.0320985,4.1176858 3.5561078,4.4994157 3.1768233,4.7244375 Z"
         id="path27316"
         inkscape:original-d="M 3.16255,4.635 C 2.62474,4.37595 1.85545,3.86177 1.85545,2.84467 1.85545,1.82756 1.90408,1.365 1.90408,1.365 h 1.25847 1.2585 c 0,0 0.04864,0.46256 0.04864,1.47967 0,1.0171 -0.76929,1.53128 -1.30714,1.79033 z" />
      <path
         fill="#ee1c25"
         d="M 3.1762168,4.5857123 C 2.687706,4.384868 1.9748002,3.8879476 1.9747307,2.944139 c -6.8e-5,-0.9244194 0.045521,-1.3258401 0.045521,-1.3258401 0.3921234,0.00745 0.7680594,-0.00386 1.1536243,-0.038056 0.3784226,-0.033562 0.7397029,-0.086826 1.1066279,-0.1555233 6.7e-6,-1.4e-6 0.0064,-0.00136 0.00641,-0.00136 -2.57e-5,5e-6 0.01391,-0.00267 0.013884,-0.00267 0,0 0.044034,0.4288499 0.044371,1.3682098 5.8e-5,0.1615658 -0.02121,0.3118766 -0.058999,0.4522064 -0.00211,0.0071 -0.00426,0.014185 -0.00646,0.021242 -0.1773131,0.658898 -0.7017473,1.0870699 -1.1034814,1.3233603 0,0 -7.9e-6,7e-7 -7.9e-6,7e-7 z"
         id="path27318"
         inkscape:original-d="M 3.16255,4.5 C 2.66915,4.26234 1.96338,3.79062 1.96338,2.85749 1.96338,1.924362 2.007992,1.5 2.007992,1.5 h 1.15456 1.15459 c 0,0 0.044626,0.424365 0.044626,1.35749 0,0.933128 -0.705776,1.40485 -1.19921,1.64251 z" />
      <path
         fill="#ffffff"
         d="m 3.2767414,2.6710502 c 0.1348632,-0.00818 0.3850928,-0.025336 0.6132279,-0.1331671 0,0 -0.00596,0.083983 -0.00595,0.1808828 1.74e-5,0.09693 0.00601,0.1793445 0.00601,0.1793445 -0.2023813,-0.044555 -0.4687758,-0.021826 -0.6132832,-0.00904 -1.2e-6,-0.00476 4.295e-4,0.5215352 4.283e-4,0.5167793 -0.069432,0.00531 -0.1389438,0.010005 -0.2086946,0.014082 -5.1e-6,-0.00366 -4.065e-4,-0.5132629 -4.116e-4,-0.5169239 -0.1440314,0.0065 -0.415885,0.019663 -0.6242117,0.090531 0,0 0.00612,-0.08299 0.00613,-0.1791481 1.15e-5,-0.096151 -0.00609,-0.1782126 -0.00609,-0.1782126 0.2358482,0.076126 0.4886122,0.059269 0.6241742,0.049059 9e-7,-0.0037 1.79e-4,-0.3173118 1.799e-4,-0.3210157 -0.1200849,0.00643 -0.2956231,0.021157 -0.4934633,0.090248 0,0 0.00619,-0.081998 0.00628,-0.1769338 9.08e-5,-0.09494 -0.00595,-0.175886 -0.00595,-0.175886 0.198621,0.06041 0.3715862,0.057029 0.4928197,0.048028 -0.00597,-0.2019911 -0.064737,-0.4499974 -0.064737,-0.4499974 0,0 0.121912,3.61e-4 0.1704339,-0.00378 0.048716,-0.00416 0.1698398,-0.025335 0.1698398,-0.025335 0,0 -0.059379,0.2603504 -0.065811,0.4633525 0.1201472,-0.0091 0.2924001,-0.031417 0.4855203,-0.1224575 0,0 -0.00609,0.083805 -0.00618,0.1805388 -8.84e-5,0.096749 0.00584,0.1791064 0.00584,0.1791064 -0.1923561,-0.04294 -0.3667284,-0.032517 -0.4859506,-0.021832 1.4e-6,-0.00161 -1.698e-4,0.3233652 -1.685e-4,0.3217505 0,0 1e-6,2.39e-5 1e-6,2.39e-5 z"
         id="path27320"
         inkscape:original-d="M 3.26808,2.61284 C 3.401679,2.615 3.662335,2.62023 3.894432,2.542567 c 0,0 -0.00613,0.083055 -0.00613,0.179805 0,0.096773 0.00613,0.179822 0.00613,0.179822 -0.21289,-0.07125 -0.4758,-0.07273 -0.62635,-0.07082 V 3.346765 H 3.057049 V 2.831374 c -0.150545,-0.00191 -0.41345,-4.252e-4 -0.626352,0.070815 0,0 0.00613,-0.083049 0.00613,-0.179822 0,-0.09675 -0.00613,-0.179805 -0.00613,-0.179805 0.2321,0.077665 0.492753,0.072432 0.626352,0.070273 V 2.289159 c -0.121766,-0.00108 -0.297234,0.00473 -0.49563,0.071126 0,0 0.00613,-0.083055 0.00613,-0.179822 0,-0.096756 -0.00613,-0.179811 -0.00613,-0.179811 0.198103,0.066283 0.373356,0.072192 0.495088,0.071137 -0.00626,-0.20498 -0.06597,-0.46332 -0.06597,-0.46332 0,0 0.12289,0.00959 0.172016,0.00959 0.049178,0 0.172031,-0.00959 0.172031,-0.00959 0,0 -0.059695,0.258346 -0.065964,0.463301 0.121741,0.00106 0.296989,-0.00485 0.495086,-0.071137 0,0 -0.00613,0.083055 -0.00613,0.179811 0,0.096767 0.00613,0.179822 0.00613,0.179822 C 3.565318,2.293874 3.389843,2.288059 3.268079,2.28914 v 0.323676 z" />
      <path
         fill="#0b4ea2"
         d="m 3.1728105,3.3571715 c -0.2459079,0.016516 -0.3782556,0.3679339 -0.3782556,0.3679339 0,0 -0.073754,-0.1615939 -0.2764607,-0.1590262 C 2.3807174,3.5678193 2.279641,3.6905105 2.21519,3.8053148 2.4701169,4.2187885 2.8625482,4.4567729 3.1761633,4.5857169 3.4881364,4.4022239 3.8708931,4.1063567 4.1124821,3.6722556 4.0503794,3.5692038 3.9525159,3.4611806 3.8191259,3.4776119 c -0.1974077,0.024317 -0.270052,0.194718 -0.270052,0.194718 0,0 -0.1307585,-0.3316472 -0.3762644,-0.3151584 0,0 1e-6,0 1e-6,0 z"
         id="path27322"
         inkscape:original-d="m 3.1625,3.29094 c -0.24847,0 -0.381562,0.344688 -0.381562,0.344688 0,0 -0.073834,-0.163438 -0.276562,-0.163438 -0.137161,0 -0.238243,0.12201 -0.3025,0.235 0.24954,0.39705 0.64768,0.64207 0.96062,0.79281 0.31299,-0.15075 0.71139,-0.39571 0.96094,-0.79281 -0.064256,-0.11299 -0.165339,-0.235 -0.3025,-0.235 -0.202734,0 -0.276875,0.163438 -0.276875,0.163438 0,0 -0.133073,-0.344688 -0.381562,-0.344688 z" />
    </g>
  </g>
  <path
     style="font-style:normal;font-weight:normal;font-size:1222.56px;line-height:1.25;font-family:sans-serif;fill:#f1df00;fill-opacity:0.192771;stroke:#000000;stroke-width:1;stroke-miterlimit:4;stroke-dasharray:none;stroke-opacity:1"
     d="m 630.35429,-3.4816915 c -19.84542,-7.3692045 -39.67194,-9.8960335 -60.06211,-9.8783075 -20.39017,0.01773 -40.80973,3.231263 -60.06211,9.8783075 -19.25238,6.6470447 -41.55295,9.9910958 -60.06222,10.017319 -18.50927,0.026223 -34.6135,-2.0033691 -50.16789,-6.53919603 V 139.9619 c 16.8388,4.83792 31.45456,6.67936 50.16789,6.67824 18.71333,-0.001 40.83436,-3.43569 60.06222,-10.01744 19.22786,-6.58175 39.83463,-10.15285 60.06211,-10.01744 20.22748,0.13541 41.83341,2.73286 60.06211,10.01745 z"
     id="path28245"
     sodipodi:nodetypes="czzzcczzzcc" />
  <path
     style="font-style:normal;font-weight:normal;font-size:1222.56px;line-height:1.25;font-family:sans-serif;fill:none;fill-opacity:1;stroke:#000000;stroke-width:0.99999989;stroke-miterlimit:4;stroke-dasharray:none;stroke-opacity:1"
     d="m 691.06175,255.8268 c -9.47615,-3.71018 -19.32392,-6.26093 -29.54331,-7.65224 -10.21941,-1.48405 -20.39234,-2.22607 -30.5188,-2.22607 -10.40518,0 -20.5781,0.7884 -30.51876,2.36519 -9.84783,1.5768 -19.69562,4.08117 -29.54335,7.51312 -9.84783,3.43187 -19.74207,5.98258 -29.68273,7.65214 -9.84773,1.57679 -19.97422,2.36519 -30.37949,2.36519 -8.45414,0 -16.90835,-0.46377 -25.36258,-1.3913 -8.36136,-1.02028 -16.62981,-2.73624 -24.80535,-5.1479"
     id="path28247"
     sodipodi:nodetypes="ccscscscc" />
  <g
     id="g28267"
     transform="matrix(25.569332,0,0,25.569332,-178.09503,-184.69504)">
    <rect
       width="9.0085745"
       height="6.0057163"
       fill="#ee1c25"
       id="rect28251"
       x="0"
       y="0"
       style="stroke-width:1.00095" />
    <rect
       width="9"
       height="4"
       fill="#0b4ea2"
       id="rect28253"
       x="0"
       y="0" />
    <rect
       width="9"
       height="2"
       fill="#ffffff"
       id="rect28255"
       x="0"
       y="0" />
    <g
       id="g28265">
      <path
         fill="#ffffff"
         d="M 3.16255,4.635 C 2.62474,4.37595 1.85545,3.86177 1.85545,2.84467 1.85545,1.82756 1.90408,1.365 1.90408,1.365 h 1.25847 1.2585 c 0,0 0.04864,0.46256 0.04864,1.47967 0,1.0171 -0.76929,1.53128 -1.30714,1.79033 z"
         id="path28257" />
      <path
         fill="#ee1c25"
         d="M 3.16255,4.5 C 2.66915,4.26234 1.96338,3.79062 1.96338,2.85749 1.96338,1.924362 2.007992,1.5 2.007992,1.5 h 1.15456 1.15459 c 0,0 0.044626,0.424365 0.044626,1.35749 0,0.933128 -0.705776,1.40485 -1.19921,1.64251 z"
         id="path28259" />
      <path
         fill="#ffffff"
         d="M 3.26808,2.61284 C 3.401679,2.615 3.662335,2.62023 3.894432,2.542567 c 0,0 -0.00613,0.083055 -0.00613,0.179805 0,0.096773 0.00613,0.179822 0.00613,0.179822 -0.21289,-0.07125 -0.4758,-0.07273 -0.62635,-0.07082 V 3.346765 H 3.057049 V 2.831374 c -0.150545,-0.00191 -0.41345,-4.252e-4 -0.626352,0.070815 0,0 0.00613,-0.083049 0.00613,-0.179822 0,-0.09675 -0.00613,-0.179805 -0.00613,-0.179805 0.2321,0.077665 0.492753,0.072432 0.626352,0.070273 V 2.289159 c -0.121766,-0.00108 -0.297234,0.00473 -0.49563,0.071126 0,0 0.00613,-0.083055 0.00613,-0.179822 0,-0.096756 -0.00613,-0.179811 -0.00613,-0.179811 0.198103,0.066283 0.373356,0.072192 0.495088,0.071137 -0.00626,-0.20498 -0.06597,-0.46332 -0.06597,-0.46332 0,0 0.12289,0.00959 0.172016,0.00959 0.049178,0 0.172031,-0.00959 0.172031,-0.00959 0,0 -0.059695,0.258346 -0.065964,0.463301 0.121741,0.00106 0.296989,-0.00485 0.495086,-0.071137 0,0 -0.00613,0.083055 -0.00613,0.179811 0,0.096767 0.00613,0.179822 0.00613,0.179822 C 3.565318,2.293874 3.389843,2.288059 3.268079,2.28914 v 0.323676 z"
         id="path28261" />
      <path
         fill="#0b4ea2"
         d="m 3.1625,3.29094 c -0.24847,0 -0.381562,0.344688 -0.381562,0.344688 0,0 -0.073834,-0.163438 -0.276562,-0.163438 -0.137161,0 -0.238243,0.12201 -0.3025,0.235 0.24954,0.39705 0.64768,0.64207 0.96062,0.79281 0.31299,-0.15075 0.71139,-0.39571 0.96094,-0.79281 -0.064256,-0.11299 -0.165339,-0.235 -0.3025,-0.235 -0.202734,0 -0.276875,0.163438 -0.276875,0.163438 0,0 -0.133073,-0.344688 -0.381562,-0.344688 z"
         id="path28263" />
    </g>
  </g>
  <path
     d="m 230.3207,20.034765 c 7.89679,0 15.14327,0.32461 21.73944,0.973829 6.59609,0.556595 13.00642,1.530497 19.23101,2.921708 6.22446,1.298616 12.49546,3.014571 18.81299,5.147865 6.31739,2.040543 13.09933,4.498503 20.34583,7.373878 l -0.009,200.029175 c -7.61809,-3.06086 -14.49295,-5.79709 -20.62456,-8.2087 -6.13171,-2.41163 -12.21687,-4.45223 -18.25548,-6.12178 -5.94587,-1.66957 -12.21689,-2.92176 -18.81308,-3.75657 -6.50321,-0.92753 -13.98192,-1.3913 -22.43615,-1.3913 -9.2904,0 -18.20914,0.60292 -26.75621,1.80876 -8.45423,1.20569 -17.04781,3.43177 -25.78076,6.67824 -11.14847,4.17394 -22.25042,7.14206 -33.30586,8.90435 -10.96261,1.66954 -22.38978,2.50431 -34.2815,2.50431 -6.78194,0 -13.517427,-0.2783 -20.206462,-0.83491 -6.596163,-0.55661 -13.238763,-1.48417 -19.927801,-2.78268 l 0.0093,86.71903 H 20.033594 V 59.408776 c -3.251669,-3.246361 -5.760046,-6.956508 -7.52513,-11.130442 -1.67231,-4.266675 -2.508465,-8.672471 -2.508465,-13.217386 0,-4.823221 0.92903,-9.368169 2.787091,-13.634843 1.85801,-4.266673 4.366425,-7.976813 7.525244,-11.13042 C 23.470976,7.1420643 27.187085,4.6376858 31.46066,2.7825495 35.734209,0.9275165 40.286485,0 45.117488,0 c 4.830978,0 9.336804,0.9275165 13.517477,2.7825495 4.273575,1.8551511 7.989735,4.405899 11.148478,7.6522435 3.158693,3.153621 5.667069,6.863769 7.52513,11.130442 1.858011,4.173921 2.787016,8.672492 2.787016,13.495713 v 1.25214 c 0,0.370787 -0.04661,0.788167 -0.139843,1.252139 10.033559,1.669549 20.113564,2.504324 30.240024,2.504324 9.29038,0 18.16269,-0.60292 26.61694,-1.808759 8.5473,-1.298591 17.18742,-3.571042 25.92037,-6.817355 11.14845,-4.173891 22.20398,-7.095614 33.16659,-8.765171 11.05553,-1.762383 22.52912,-2.643575 34.42077,-2.643575 z M 30.067114,35.060948 c 0,3.246357 0.929005,6.168094 2.787015,8.76521 1.85801,2.504279 4.273499,4.266588 7.246467,5.286928 V 299.96567 h 9.894283 V 49.113086 c 2.972917,-1.020312 5.388405,-2.782621 7.246465,-5.286928 1.858011,-2.597108 2.787016,-5.518845 2.787016,-8.76521 0,-2.040632 -0.418141,-3.942101 -1.254422,-5.704406 -0.743053,-1.855034 -1.811396,-3.478199 -3.205029,-4.869495 -1.300658,-1.391208 -2.880005,-2.457896 -4.73804,-3.200063 -1.765034,-0.83476 -3.66957,-1.25214 -5.713608,-1.25214 -2.136686,0 -4.13411,0.41738 -5.992271,1.25214 -1.765035,0.742429 -3.344369,1.809117 -4.738003,3.200063 -1.300657,1.298616 -2.369,2.875412 -3.205029,4.730387 -0.743053,1.855062 -1.11458,3.8029 -1.11458,5.843514 z M 290.38281,49.947933 c -19.84542,-7.369204 -39.67195,-9.896035 -60.06211,-9.878307 -20.39016,0.01773 -40.80973,3.231262 -60.06211,9.878307 -19.25238,6.647045 -41.55296,9.991101 -60.06222,10.017319 -18.509263,0.02622 -34.613472,-2.003367 -50.167859,-6.539196 l -0.0093,156.898804 c 16.838789,4.83792 31.454534,6.67938 50.167859,6.67824 18.71333,-0.001 40.83436,-3.43569 60.06222,-10.01744 19.22786,-6.58175 39.83464,-10.15285 60.06211,-10.01744 20.22747,0.13541 41.83341,2.73286 60.06211,10.01745 z"
     style="font-style:normal;font-weight:normal;font-size:1222.56px;line-height:1.25;font-family:sans-serif;fill:#000000;fill-opacity:0.690763;stroke:none;stroke-width:7.12925"
     id="path915"
     sodipodi:nodetypes="ccccccsccscccsccccccscccscccsscsccccccccccccscccscccccczzzcczzzcc" />
  <path
     style="font-style:normal;font-weight:normal;font-size:1222.56px;line-height:1.25;font-family:sans-serif;fill:none;fill-opacity:1;stroke:#000000;stroke-width:1;stroke-miterlimit:4;stroke-dasharray:none;stroke-opacity:1"
     d="m 691.06175,266.41014 c -19.84542,-7.3692 -39.67194,-9.89604 -60.06211,-9.87831 -20.39017,0.0177 -40.80973,3.23126 -60.06211,9.87831 -19.25238,6.64705 -41.55294,9.9911 -60.06222,10.01733 -18.50928,0.0262 -34.61352,-2.00337 -50.16793,-6.5392"
     id="path28311"
     sodipodi:nodetypes="czzzc" />
  <path
     style="font-style:normal;font-weight:normal;font-size:1222.56px;line-height:1.25;font-family:sans-serif;fill:none;fill-opacity:1;stroke:#000000;stroke-width:1;stroke-miterlimit:4;stroke-dasharray:none;stroke-opacity:1"
     d="m 691.06175,276.99348 c -9.47615,-3.71018 -19.32392,-6.26093 -29.54331,-7.65224 -10.21941,-1.48405 -20.39234,-2.22607 -30.5188,-2.22607 -10.40518,0 -20.5781,0.7884 -30.51876,2.36519 -9.84783,1.5768 -19.69562,4.08117 -29.54335,7.51312 -9.84783,3.43187 -19.74207,5.98258 -29.68273,7.65214 -9.84773,1.57679 -19.97422,2.36519 -30.37949,2.36519 -8.45414,0 -16.90835,-0.46377 -25.36258,-1.3913 -8.36136,-1.02028 -16.62981,-2.73624 -24.80535,-5.1479"
     id="path28313"
     sodipodi:nodetypes="ccscscscc" />
</svg>
