<?xml version="1.0" encoding="UTF-8" standalone="no"?>
<svg
   xmlns:dc="http://purl.org/dc/elements/1.1/"
   xmlns:cc="http://creativecommons.org/ns#"
   xmlns:rdf="http://www.w3.org/1999/02/22-rdf-syntax-ns#"
   xmlns:svg="http://www.w3.org/2000/svg"
   xmlns="http://www.w3.org/2000/svg"
   xmlns:sodipodi="http://sodipodi.sourceforge.net/DTD/sodipodi-0.dtd"
   xmlns:inkscape="http://www.inkscape.org/namespaces/inkscape"
   width="32cm"
   height="32cm"
   viewBox="0 0 319.99999 319.99996"
   version="1.1"
   inkscape:version="1.0.1 (3bc2e813f5, 2020-09-07)"
   id="svg991"
   sodipodi:docname="flag-template.svg">
  <metadata
     id="metadata995">
    <rdf:RDF>
      <cc:Work
         rdf:about="">
        <dc:format>image/svg+xml</dc:format>
        <dc:type
           rdf:resource="http://purl.org/dc/dcmitype/StillImage" />
        <dc:title />
      </cc:Work>
    </rdf:RDF>
  </metadata>
  <defs
     id="defs993" />
  <sodipodi:namedview
     pagecolor="#ffffff"
     bordercolor="#666666"
     borderopacity="1.0"
     inkscape:pageopacity="0.0"
     inkscape:pageshadow="2"
     inkscape:zoom="0.70710681"
     inkscape:cx="230.29268"
     inkscape:cy="492.46528"
     inkscape:document-units="cm"
     inkscape:current-layer="svg991"
     inkscape:document-rotation="0"
     showgrid="false"
     units="cm"
     inkscape:window-width="2560"
     inkscape:window-height="1360"
     inkscape:window-x="-11"
     inkscape:window-y="-11"
     inkscape:window-maximized="1"
     inkscape:snap-global="false"
     id="namedview977"
     showguides="true"
     inkscape:guide-bbox="true">
    <inkscape:grid
       type="xygrid"
       empspacing="8"
       color="#ff3ff2"
       opacity="0.1254902"
       dotted="false"
       id="grid975"
       units="cm"
       spacingx="9.9999989"
       spacingy="9.9999989" />
  </sodipodi:namedview>
  <path
     style="font-style:normal;font-weight:normal;font-size:1222.56px;line-height:1.25;font-family:sans-serif;fill:#cccccc;fill-opacity:1;stroke:none;stroke-width:7.12925"
     d="m 30.067114,35.060948 q 0,4.869536 2.787015,8.76521 2.787015,3.756418 7.246467,5.286928 V 299.96567 h 9.894283 V 49.113086 q 4.459375,-1.530468 7.246465,-5.286928 2.787016,-3.895662 2.787016,-8.76521 0,-3.060948 -1.254422,-5.704406 -1.114579,-2.782551 -3.205029,-4.869495 -1.950987,-2.086812 -4.73804,-3.200063 -2.647551,-1.25214 -5.713608,-1.25214 -3.205029,0 -5.992271,1.25214 -2.647552,1.113644 -4.738003,3.200063 -1.950986,1.947924 -3.205029,4.730387 -1.11458,2.782593 -1.11458,5.843514 z"
     id="path934" />
  <path
     id="path915"
     style="font-style:normal;font-weight:normal;font-size:1222.56px;line-height:1.25;font-family:sans-serif;fill:#000000;fill-opacity:0.987952;stroke:none;stroke-width:7.12925"
     d="M 45.117656,0 C 40.286653,0 35.734159,0.92774259 31.460609,2.7827756 27.187033,4.6379121 23.471095,7.141874 20.312453,10.295495 c -3.158819,3.153607 -5.667111,6.863912 -7.525121,11.130586 -1.858061,4.266673 -2.7874264,8.811603 -2.7874264,13.634824 0,4.544917 0.8360634,8.950605 2.5083734,13.217281 1.765084,4.173934 4.273453,7.884225 7.525122,11.130586 V 320.00007 h 50.028982 l -0.0093,-86.71924 c 6.689036,1.29851 13.331818,2.22617 19.927981,2.78278 6.689034,0.55661 13.424576,0.83509 20.206516,0.83509 11.89172,0 23.3185,-0.8347 34.28111,-2.50424 11.05544,-1.76229 22.15751,-4.73043 33.30598,-8.90437 8.73295,-3.24647 17.32662,-5.47297 25.78085,-6.67866 8.54707,-1.20584 17.46559,-1.80867 26.75599,-1.80867 8.45423,0 15.93314,0.46411 22.43635,1.39164 6.59619,0.83481 12.86745,2.08679 18.81332,3.75636 6.03861,1.66955 12.12353,3.70996 18.25522,6.12159 6.13161,2.41161 13.00649,5.14794 20.62459,8.2088 l 0.009,-200.029116 c -7.24649,-2.875375 -14.02813,-5.333166 -20.34553,-7.373709 -6.31754,-2.133293 -12.58885,-3.849389 -18.81331,-5.148005 -6.22458,-1.391211 -12.63477,-2.36519 -19.23086,-2.921785 -6.59617,-0.649219 -13.84245,-0.973584 -21.73924,-0.973584 l -5.3e-4,-5.29e-4 c -11.89165,0 -23.3651,0.881383 -34.42063,2.643766 -10.96261,1.669557 -22.018,4.591464 -33.16645,8.765356 -8.73295,3.246312 -17.37308,5.518562 -25.92038,6.817153 -8.45425,1.205838 -17.3266,1.808675 -26.61698,1.808675 -10.12646,0 -20.206451,-0.834691 -30.240011,-2.504238 0.09323,-0.463974 0.139528,-0.881335 0.139528,-1.252122 v -1.25212 c 0,-4.823221 -0.9289,-9.321893 -2.786912,-13.495814 C 75.450392,17.298417 72.942026,13.588642 69.783332,10.435021 66.624588,7.1886764 62.908751,4.6379269 58.635175,2.7827756 54.454502,0.92774259 49.948633,0 45.117656,0 Z m 4.877268,299.96564 H 40.100392 V 49.113277 c -2.972969,-1.020339 -5.388059,-2.782737 -7.246069,-5.287015 -1.85801,-2.597115 -2.787428,-5.518999 -2.787428,-8.765357 h 5.3e-4 c 2e-6,-2.040614 0.37161,-3.988508 1.114663,-5.843571 0.836027,-1.854975 1.904314,-3.431843 3.204971,-4.730459 1.393635,-1.390946 2.97266,-2.457375 4.737695,-3.199804 1.858161,-0.83476 3.855712,-1.25212 5.992397,-1.25212 h -2.4e-5 c 2.044038,0 3.948829,0.41736 5.713864,1.25212 1.858034,0.742167 3.437036,1.808596 4.737695,3.199804 1.393632,1.391296 2.462435,3.014435 3.205488,4.869469 0.836282,1.762307 1.254188,3.663931 1.254188,5.704561 0,3.246366 -0.928899,6.16825 -2.786911,8.765357 -1.85806,2.504308 -4.273669,4.266702 -7.244257,5.285467 15.027549,7.973864 41.689384,10.879822 60.198646,10.853602 18.50926,-0.02622 40.8101,-3.370429 60.06248,-10.017474 19.25238,-6.647047 39.6718,-9.860737 60.06196,-9.878466 20.39016,-0.01773 40.21705,2.50926 60.0625,9.878466 l -0.009,157.037943 c -18.22871,-7.28459 -39.8345,-9.88206 -60.06197,-10.01747 -20.22747,-0.13541 -40.8341,3.43572 -60.06196,10.01747 -19.22786,6.58175 -41.34915,10.01648 -60.06248,10.01748 -18.713325,0.001 -43.348228,-1.93221 -60.189601,-11.00347 z"
     sodipodi:nodetypes="scccsccccccscccsccsccccccccccscsscccscccccccccsscccsccsssccssccc" />
</svg>
